<?xml version="1.0" encoding="UTF-8"?>
<svg width="196px" height="196px" viewBox="0 0 196 196" version="1.1" xmlns="http://www.w3.org/2000/svg" xmlns:xlink="http://www.w3.org/1999/xlink">
    <!-- Generator: Sketch 53.2 (72643) - https://sketchapp.com -->
    <title>icon</title>
    <desc>Created with Sketch.</desc>
    <defs>
        <filter x="-4.0%" y="-3.5%" width="107.9%" height="107.3%" filterUnits="objectBoundingBox" id="filter-1">
            <feOffset dx="0" dy="5" in="SourceAlpha" result="shadowOffsetOuter1"></feOffset>
            <feGaussianBlur stdDeviation="2.5" in="shadowOffsetOuter1" result="shadowBlurOuter1"></feGaussianBlur>
            <feColorMatrix values="0 0 0 0 0   0 0 0 0 0   0 0 0 0 0  0 0 0 0.144389719 0" type="matrix" in="shadowBlurOuter1" result="shadowMatrixOuter1"></feColorMatrix>
            <feMerge>
                <feMergeNode in="shadowMatrixOuter1"></feMergeNode>
                <feMergeNode in="SourceGraphic"></feMergeNode>
            </feMerge>
        </filter>
    </defs>
    <g id="icon" stroke="none" stroke-width="1" fill="none" fill-rule="evenodd">
        <g id="Toucan" transform="translate(-140.000000, -213.000000)" fill="#000000" stroke="#000000">
            <g transform="translate(423.462861, 434.243868) rotate(18.500000) translate(-423.462861, -434.243868) translate(93.962861, 86.743868)" id="Border">
                <g filter="url(#filter-1)" transform="translate(0.581148, 0.608119)">
                    <path d="M282.38156,657.860096 L135.85887,74.5184141" id="String-Copy" stroke-width="7.74439964" stroke-linecap="square"></path>
                    <path d="M196.486683,32.8630442 C197.377252,22.1238462 202.80704,1.54324179 202.80704,1.54324179 L206.380455,1.53983237 C206.380455,1.53983237 210.093578,18.4619589 207.641698,34.6276871 C200.262264,83.2817459 195.217468,92.0232528 187.169672,113.7304 C179.121875,135.437547 177.458154,139.673558 166.664832,167.66609 C156.347086,194.425212 163.484489,216.901037 172.989543,227.36842 C176.293482,231.006862 180.975619,235.461775 180.975619,235.461775 C180.975619,235.461775 175.89578,235.101764 170.079521,230.239203 C170.079521,230.239203 158.824626,220.935455 155.43603,204.29521 C151.923291,187.045336 156.825151,168.453087 162.341913,154.608706 C173.282402,127.153413 178.941117,112.867191 184.757462,92.0332344 C190.128958,72.792713 194.498678,56.8360159 196.486683,32.8630442 Z" id="Path-26" stroke-width="5.24084645" transform="translate(181.365725, 118.500804) scale(1, -1) rotate(-337.000000) translate(-181.365725, -118.500804) "></path>
                    <path d="M292.183079,269.444778 L302.547111,265.166102 L300.893532,266.885024 L301.527212,268.781602 C301.690621,269.270678 302.257034,270.338514 303.379369,272.254414 C303.373918,272.245108 306.445534,277.422056 307.568385,279.36156 C312.033545,287.07425 315.925963,294.568273 319.74312,303.233498 C320.86226,305.774028 321.952331,308.46246 323.012863,311.280686 C325.653654,318.298248 328.000326,325.801228 330.028574,333.302119 C330.738091,335.926061 331.357433,338.363386 331.883147,340.552575 C332.067567,341.320544 332.227241,342.003262 332.361729,342.593023 C332.443096,342.949841 332.49838,343.198229 332.518814,343.293491 C332.539001,343.380262 332.575244,343.539309 332.625257,343.76392 C332.707671,344.134041 332.799252,344.556194 332.897715,345.02369 C333.178483,346.356753 333.459079,347.789909 333.721223,349.270237 C334.027497,350.999766 334.288452,352.681967 334.490004,354.27803 C335.019687,358.472533 335.113768,361.743324 334.590993,363.97908 L334.552239,364.125577 C334.498702,364.30661 334.397845,364.671313 334.265347,365.191865 C334.041144,366.072705 333.816229,367.054821 333.606189,368.109931 C333.049382,370.90698 332.700173,373.68602 332.657708,376.244096 C332.63447,377.643931 332.705251,378.937482 332.87625,380.101295 C333.028469,381.137299 334.206893,382.466256 336.173431,383.757403 C337.044784,384.329498 337.993505,384.846804 338.943469,385.294307 C339.276129,385.451014 339.583467,385.587022 339.856313,385.701094 C340.012229,385.766279 340.116216,385.807549 340.159237,385.823825 L341.549332,386.349741 L343.574828,397.65833 L343.071514,398.499963 C343.02438,398.578778 342.9228,398.759329 342.785067,399.023468 C342.547846,399.478399 342.309285,399.982767 342.087528,400.516956 C341.625584,401.629733 341.304863,402.70926 341.184357,403.657698 C341.136796,404.032033 341.12209,404.37539 341.13986,404.68208 C341.219099,406.049655 341.365089,407.22945 341.654182,409.052445 C341.690894,409.283946 341.730579,409.53109 341.809143,410.019664 C342.668738,415.379414 342.86354,418.906538 342.284229,425.224381 C341.968773,428.664673 341.308309,431.794051 340.21939,435.62946 C340.12386,435.965936 339.004711,439.764086 338.757086,440.704399 C338.357545,442.221587 338.172783,443.286313 338.172784,444.097193 C338.172784,444.425203 338.409615,444.951946 338.858338,445.529583 C339.185499,445.950735 339.515985,446.272963 339.68572,446.411955 L340.588047,447.150845 L340.643039,448.315804 C340.650142,448.466287 340.660215,448.736561 340.670102,449.113493 C340.773486,453.054962 340.619823,457.630233 339.998502,462.029473 C339.936067,462.471541 339.86926,462.90696 339.797952,463.335373 C338.293504,472.374035 334.84288,482.146836 329.326107,494.36574 C328.274155,496.695671 327.717211,497.734086 326.977358,498.555713 C326.158462,499.465119 325.323707,499.879412 324.062308,500.192302 C323.896119,500.233525 323.092449,500.420805 323.351752,500.359907 C318.738135,501.443418 315.649077,498.999395 314.31899,492.557972 C312.737188,484.897529 313.135619,470.676361 314.682637,458.857139 C314.668774,458.800301 314.653968,458.739565 314.638249,458.675054 C314.509887,458.148228 314.36689,457.558986 314.212908,456.921524 C313.772892,455.099926 313.332842,453.256221 312.921872,451.503582 C312.854037,451.214085 312.854037,451.214085 312.786289,450.924107 C311.590879,445.803501 310.992553,443.007674 310.980983,442.089849 C310.968599,441.107515 313.453662,433.718522 313.338861,434.086913 C315.079713,428.500596 316.689993,422.093832 318.225455,414.000981 C318.301063,413.60248 318.376247,413.200932 318.451001,412.796306 C320.190355,403.381644 319.258722,399.266588 315.957033,397.20467 C313.967752,395.962355 312.001333,395.728852 310.327657,396.053276 C310.126007,396.092363 310.011555,396.123644 310.000056,396.127597 L306.981325,397.165377 L306.005425,389.982485 L316.914314,360.293818 L313.549099,354.183282 L304.78286,353.910525 C304.32413,354.043227 303.850154,354.123161 303.343635,354.118005 C301.348287,354.097693 299.773874,352.670557 299.733995,350.41745 C299.723772,350.234873 299.708099,349.938302 299.68866,349.542018 C299.652423,348.803298 299.616221,347.979421 299.582445,347.09056 C299.480783,344.415214 299.422075,341.731012 299.428335,339.218182 C299.435778,336.230755 299.535066,333.69135 299.748351,331.715183 C300.628797,323.557505 297.366492,308.204124 292.051157,298.834335 C290.303749,295.754032 288.778851,293.349082 287.174293,291.056244 C286.690756,290.365292 284.350467,287.150913 283.772356,286.287243 C282.910686,284.999948 282.23971,283.81663 281.623037,282.452108 C280.902385,280.857511 280.196422,279.38687 279.524066,278.057636 L278.315129,275.667592 L280.731054,274.511241 C281.807083,273.996214 282.883671,273.491952 283.960821,272.998554 L283.385722,272.940798 L292.183079,269.444778 Z M299.434749,272.536824 L299.368705,272.424176 L297.91965,273.273734 C297.937502,273.305588 297.955546,273.337715 297.973785,273.370121 L299.508187,272.697636 C299.485316,272.64545 299.460851,272.591802 299.434749,272.536824 Z M299.317713,272.302931 C299.089386,271.868603 298.766947,271.370819 298.331699,270.864349 C298.09461,270.588464 297.841939,270.333208 297.573072,270.102749 L296.556479,270.44241 C296.770174,271.081989 297.12193,271.826381 297.715059,272.905312 C298.249242,272.701651 298.78346,272.500853 299.317713,272.302931 Z M311.331327,390.683385 C311.288413,390.684747 311.245559,390.686328 311.202768,390.688127 L311.149301,391.178773 L311.331327,390.683385 Z M300.367765,295.470123 C301.985591,298.862668 304.966729,306.794772 306.528753,311.640994 C306.566505,310.785814 306.532069,309.605153 306.394888,308.240303 C306.284601,307.143029 306.119725,305.965312 305.914805,304.752957 C305.774309,303.921751 305.623605,303.124582 305.473143,302.391545 C305.415523,302.110825 305.366559,301.880767 305.329047,301.709254 C305.224131,301.47917 305.05636,301.13773 304.827919,300.716898 C304.316931,299.775559 303.708874,298.833912 303.014936,297.966593 C302.181927,296.925455 301.292632,296.077806 300.367765,295.470123 Z M307.109536,313.528767 C307.114967,313.547617 307.120353,313.566364 307.125694,313.585006 C307.119157,313.56219 307.113292,313.541525 307.10791,313.522765 Z M315.270692,317.621128 C315.002347,317.086963 314.482526,317.16679 314.376878,317.908071 C314.17038,319.356959 313.75768,321.005947 313.172467,322.831927 C312.812759,323.954284 312.393124,325.126085 311.92542,326.331226 C311.377547,327.74294 310.792198,329.128726 310.206664,330.433262 C310.001422,330.890528 309.810469,331.305715 309.638495,331.671725 C309.610919,331.730414 309.585318,331.784689 309.561778,331.834421 C309.520705,332.076948 309.515987,332.248057 309.529888,332.35665 C309.6532,332.393408 309.854334,332.411299 309.976339,332.399448 L317.256523,329.474615 C318.557378,328.942647 318.792881,328.541285 318.393519,327.059655 L315.270692,317.621128 Z M309.546851,332.437447 C309.547472,332.439356 309.548102,332.441223 309.548741,332.443048 C309.546823,332.437573 309.544159,332.431655 309.54091,332.425477 Z M323.092336,389.904347 C323.058476,389.881148 323.022526,389.860451 322.985104,389.843147 C322.953374,389.828474 322.941045,389.821524 322.954003,389.815912 L323.008565,389.805508 C323.026983,389.802974 323.049935,389.800029 323.077784,389.796279 L323.092336,389.904347 Z M323.430124,389.725129 L327.713498,388.908413 C327.706235,388.90127 327.697925,388.892067 327.688336,388.880306 C327.346536,388.461086 327.045465,388.044742 326.740532,387.5816 C326.627418,387.409799 326.519737,387.240998 326.385627,387.026848 C326.391832,387.036757 326.15189,386.652243 326.089274,386.553149 C325.709786,385.952582 325.480395,385.654991 325.174932,385.378443 C324.99375,385.214411 324.620857,385.250881 324.526254,385.467548 C324.486793,385.557925 324.433161,385.702964 324.372092,385.889339 C324.259489,386.232989 324.133726,386.678765 324.001844,387.196885 C323.86375,387.739406 323.727252,388.327535 323.599352,388.916608 C323.522549,389.270338 323.466206,389.54328 323.436425,389.693376 L323.430124,389.725129 Z M326.48415,424.055876 C326.531517,424.060171 326.608017,424.065091 326.722716,424.065091 C327.50612,424.065091 329.693594,422.802989 332.060274,420.338697 C332.187094,420.206646 332.665283,419.724696 332.761887,419.622063 C333.18129,419.176486 333.255327,418.989244 333.255327,417.911901 C333.255326,416.400753 333.156612,414.996434 332.954373,413.438438 C332.773733,412.046836 331.837564,406.645753 331.726286,405.98542 C331.749413,406.117745 331.749267,406.124309 331.703235,406.088283 C331.542959,405.962849 331.322524,405.871205 331.13583,405.850928 C331.026849,405.839091 330.989121,405.848202 330.971814,405.861209 C330.864151,405.942121 330.722327,406.186345 330.60938,406.718822 C330.647812,406.537639 329.404241,412.485732 329.099796,413.849331 C328.85051,414.965876 328.616915,415.943102 328.370607,416.890293 C327.894799,418.720034 327.358683,420.482509 326.660958,422.491901 C326.456291,423.081327 326.400184,423.711676 326.48415,424.055876 Z M323.057883,435.787466 C322.938082,435.886245 322.812889,435.986121 322.629033,436.131946 C322.439572,436.283517 322.341767,436.368639 322.257516,436.454943 C321.819373,436.903766 321.329496,437.889263 320.586298,440.254614 C320.337176,441.047486 320.302215,442.36286 320.575579,443.090999 C320.756035,443.571667 320.905994,443.642654 322.140608,443.297336 C322.643036,443.156808 323.153249,443.051238 323.942567,442.910993 C323.913767,442.91611 324.777245,442.764754 325.018667,442.720579 C325.413648,442.648305 325.740374,442.582886 326.045403,442.513611 C327.653903,442.148304 328.55643,441.679514 328.975202,441.02974 C330.265808,439.027214 330.906764,436.876606 331.758532,432.243416 C332.081257,430.487953 331.956157,430.358823 330.507459,431.031354 C330.208739,431.17003 329.897494,431.32438 329.575144,431.493421 C328.819398,431.889736 328.014634,432.360323 327.178796,432.889337 C326.170169,433.527711 325.170947,434.215708 324.230233,434.903727 C323.901317,435.14429 323.603995,435.367078 323.34412,435.565986 C323.209096,435.669334 323.112346,435.744567 323.057883,435.787466 Z M330.746305,462.82673 C330.474484,463.546814 329.920959,467.148417 329.562302,471.248793 C329.411099,472.977426 329.29896,474.694156 329.230132,476.174227 C330.449484,472.87857 331.515543,469.256548 331.7078,467.118142 C331.900773,464.971771 331.852511,464.506578 331.300032,463.163301 C331.30225,463.168694 331.020072,462.930992 330.746305,462.82673 Z M329.212976,480.414618 C329.213871,480.419449 329.214777,480.424171 329.215693,480.428781 C329.213329,480.416879 329.210652,480.405502 329.207504,480.394574 Z M329.962347,335.655043 L330.529002,338.107414 L337.320168,336.470793 C337.298843,336.475343 337.423821,336.418659 337.543771,336.321104 C337.798974,336.113547 337.889699,335.864524 337.707613,335.076492 C337.559737,334.436511 337.398526,334.226201 337.220981,334.140172 C337.105427,334.08418 336.923011,334.065952 336.78245,334.081833 L329.962347,335.655043 Z M336.770438,334.083287 C336.769926,334.083353 336.769414,334.08342 336.768902,334.083487 C336.769822,334.083366 336.771804,334.083038 336.774912,334.082466 Z M327.265882,349.873159 C327.283277,349.934404 327.305707,350.013805 327.332708,350.110021 C327.405566,350.36964 327.486569,350.66238 327.573704,350.982419 C327.822577,351.896504 328.071462,352.848796 328.304391,353.793609 C328.415411,354.243934 328.520342,354.682802 328.618208,355.107533 C329.131038,357.333155 329.420319,359.003335 329.420319,360.132973 C329.420319,362.559905 328.596028,366.517049 327.144024,371.77648 C326.865167,372.786555 326.566298,373.83122 326.25018,374.903881 C325.572655,377.202886 324.847685,379.525205 324.122742,381.755657 C323.868982,382.536408 323.633226,383.250284 323.421435,383.882756 C323.293799,384.263913 323.202104,384.534425 323.152317,384.679728 L323.101407,384.828307 L323.033115,384.969741 C321.113261,388.945798 316.5107,391.619421 310.731071,393.071089 C304.805264,394.559472 299.964944,394.670232 299.213103,391.395336 C298.473967,388.175781 302.672221,378.017263 307.127824,370.067424 C307.536953,369.337443 309.962749,365.120152 310.471668,364.167305 C311.310685,362.596415 311.746704,361.529659 311.935869,360.578023 C312.011757,360.196256 312.048895,359.824956 312.048895,359.443848 C312.048895,357.331068 309.102296,355.40413 304.433981,354.902603 L302.817739,354.728967 L300.821492,349.315717 L303.822075,348.711851 L319.650868,345.526796 C322.531252,344.890006 324.841469,345.777644 326.234805,347.667171 C326.814523,348.453336 327.122775,349.227562 327.265882,349.873159 Z M312.655695,340.549403 C312.382302,340.549403 312.159773,340.771744 312.159773,341.047127 C312.159773,341.322509 312.382302,341.54485 312.655695,341.54485 C312.929089,341.54485 313.151618,341.322509 313.151618,341.047127 C313.151618,340.771744 312.929089,340.549403 312.655695,340.549403 Z" id="Combined-Shape" stroke-width="5.24084645"></path>
                    <path d="M81.4561791,217.181228 C106.275438,193.507003 140.526798,172.602284 203.325245,144.110099 C224.047933,134.708041 245.244655,128.18542 270.496678,125.768392 C306.440615,122.327974 343.181184,128.664802 380.006031,147.431812 C405.904918,160.630637 426.278406,179.234446 441.751747,201.839586 C453.103151,218.422953 461.175193,236.178088 466.526567,253.934202 C468.400756,260.152851 469.801786,265.931727 470.79855,271.125418 C471.14877,272.950256 471.423615,274.57396 471.631652,275.978358 C471.758153,276.832325 471.834928,277.43046 471.870524,277.754584 L472.389021,282.475907 L468.118619,280.396628 C443.770119,268.541228 421.886206,261.579043 398.517212,259.017943 C372.062111,256.118624 343.691083,258.988431 311.20997,268.378774 C284.278146,276.164808 258.0258,291.162671 232.096787,311.771427 C221.693825,320.039852 211.907972,328.744386 201.719025,338.533136 C197.115603,342.955747 184.417213,355.581386 182.524289,357.363843 C177.931214,361.688878 173.267203,365.611043 168.536971,369.10946 C186.302945,380.507664 204.59254,393.439249 220.096313,406.443855 C220.297509,405.271165 220.544904,404.010593 220.844431,402.67159 C221.98824,397.558317 223.694796,392.252742 226.070694,386.922908 C229.62963,378.939171 232.977344,376.486279 241.310514,375.595336 C248.90642,374.783218 256.500995,373.334048 263.876957,371.430088 C268.020272,370.360573 271.833152,369.215091 275.225411,368.071002 C276.40872,367.671914 277.453487,367.30211 278.34849,366.97128 C278.878554,366.775346 279.236591,366.637716 279.462831,366.548224 C303.631047,357.50588 316.443935,347.400925 329.544002,328.457517 C329.679231,328.261968 329.814031,328.065729 329.948409,327.868798 C335.006,320.456906 338.484376,313.887974 343.540589,303.116272 C345.994786,297.887877 346.626076,296.589386 347.5655,294.975361 C348.232395,293.829569 348.829628,292.993842 349.469473,292.387563 C350.608422,291.308366 352.048557,290.825734 353.558735,291.5266 C359.791536,294.419209 361.103757,302.489785 359.392046,314.041601 C358.866422,317.588878 358.059834,321.34459 357.048121,325.186522 C356.39599,327.662957 355.697731,330.027611 354.998944,332.202606 C354.753802,332.965619 354.525768,333.651353 354.320538,334.249974 C354.213625,334.561824 354.131938,334.794884 354.079079,334.942917 C353.99554,335.21597 353.847633,335.673284 353.630235,336.307868 C353.556505,336.523086 353.479316,336.74525 353.398622,336.974299 C355.758314,334.450551 357.901729,332.389332 359.670237,330.98088 C360.796712,330.083749 361.789351,329.433128 362.691969,329.039376 C364.224286,328.370926 365.734482,328.308685 366.998957,329.446329 C372.898161,334.753828 371.770374,343.636958 365.959368,355.349495 C364.387873,358.516965 362.495507,361.839366 360.265521,365.42129 C358.012863,369.039631 351.500822,378.745853 351.766102,378.335513 C350.658649,380.048538 349.405358,381.701058 348.033232,383.289547 C346.873271,384.632416 345.664441,385.890054 344.436384,387.057126 L353.011696,387.769755 L351.595052,391.10539 C351.533112,391.251235 351.415854,391.520935 351.244183,391.906269 C350.961693,392.540349 350.626623,393.273553 350.239868,394.097669 C349.138901,396.443664 347.842148,399.054185 346.356642,401.863606 C342.112922,409.88942 337.200654,417.915922 331.671009,425.420089 C326.471026,432.476878 320.976369,438.715013 315.201015,443.913295 C305.384208,452.749209 293.774733,459.519437 281.394609,464.5098 C277.01944,466.273407 272.837579,467.692637 268.975498,468.800954 C268.057546,469.064382 267.195687,469.299098 266.394518,469.506292 C268.924598,478.227635 270.028065,486.887261 270.028066,495.915845 C270.028067,509.47488 268.767111,518.86305 264.50411,529.750301 C259.387847,542.816692 250.218586,556.013092 235.798142,570.110923 C246.774823,573.754104 254.899834,576.586903 260.554198,578.769811 C264.143756,580.155587 266.724477,581.274858 268.330215,582.162306 C269.400952,582.754072 270.122731,583.2707 270.62005,583.928461 C271.959437,585.699952 271.136274,587.916114 269.15445,588.607931 C266.61483,589.494465 264.067014,590.222803 261.515344,590.800935 L258.529892,592.858427 C247.424146,600.512202 235.786473,603.427445 223.98144,602.333399 C223.338992,602.27386 222.69845,602.202773 222.059891,602.120395 L222.130544,603.582276 C208.930667,605.522362 196.877002,604.58762 186.03309,601.43255 L184.552103,601.904216 C177.243404,604.231929 168.581982,603.50398 160.240491,600.864988 L158.841998,601.079596 C158.510007,601.130542 157.930071,601.201128 157.131651,601.269869 C150.23887,601.863311 142.336044,601.202105 134.703463,598.288651 C131.593096,597.101384 128.450315,595.598973 125.315309,593.848698 L124.163071,593.977283 C124.069307,593.987746 123.928702,593.999744 123.743072,594.010513 C122.150618,594.102902 120.03178,593.981672 117.491099,593.491062 C113.761185,592.770807 109.824518,591.370354 105.793968,589.137786 C89.7628338,580.257956 80.1270061,572.538092 75.2039424,565.040509 C71.1253666,558.829039 70.3180386,553.461889 71.2155124,545.586869 C71.2970857,544.871092 71.3620584,544.352874 71.5350696,543.010196 C71.7385453,541.431094 71.8313767,540.668082 71.923216,539.764033 L71.9477875,539.58429 C75.7182212,517.682929 83.1712851,495.53245 93.727485,480.964357 C94.9152728,479.325149 96.0812007,477.797449 97.227169,476.377123 L97.1385743,475.7521 C96.2097359,469.19928 94.5133354,462.358869 91.8495635,456.354242 C91.1343826,454.742095 90.2650477,453.188653 89.1849847,451.580908 C87.6963019,449.364906 85.8228665,447.051326 82.9932679,443.877026 C81.5562442,442.264945 75.2335711,435.3716 73.6836599,433.655238 C63.8203071,422.732623 54.9319888,411.905161 44.2471177,397.236938 C15.653922,357.984115 8.14151078,341.200493 9.54567158,320.439619 C10.5738577,305.237626 14.4155822,292.515757 21.0473156,280.903092 C26.3937945,271.541004 32.9132314,263.612086 43.6719215,252.531554 C45.5340069,250.613766 52.5940695,243.454957 54.1928019,241.813252 C54.3372318,241.66494 56.6246322,239.32406 57.3387745,238.58792 C58.6154085,237.27196 59.6943418,236.141274 60.7234464,235.03497 C62.7575042,232.848324 64.4869939,230.871528 65.9751916,229.004778 C67.9610591,226.513767 69.4598523,224.285554 70.4304621,222.33392 C71.8777235,219.423868 72.2440731,217.02036 71.7247456,215.912815 C71.3857811,215.189922 70.2709777,214.90726 67.6524176,215.69418 L50.1779421,220.94555 L65.4683322,210.988736 C68.1287566,209.256318 72.2374597,209.106866 75.610676,210.68384 C78.3252347,211.952891 80.3592,214.174792 81.4561791,217.181228 Z M3.31956896,460.490736 C2.34142017,458.224697 1.86008079,455.181603 2.15204771,452.262881 C2.64117072,447.373237 5.13665904,443.123197 9.76559411,440.396026 C14.505196,437.603655 19.4491146,437.690671 24.1257777,440.086096 C26.9315598,441.523241 29.5243151,443.733505 31.718718,446.314435 C33.3474979,444.884269 35.4527723,444.222574 37.852276,444.844665 C42.4250341,446.030192 45.4861911,448.526389 48.5050946,453.796242 C49.6137019,455.731446 50.7453801,457.959497 51.9008355,460.468476 C55.5643127,468.423423 59.4232965,479.092279 63.3888298,491.825303 C66.5229732,501.888797 69.5456444,512.662284 72.3462767,523.434571 C73.3262676,527.203984 74.2086421,530.704508 74.9794163,533.846878 C75.2493915,534.94754 75.4862014,535.925112 75.6880947,536.768428 C75.7588837,537.064116 75.8202853,537.322047 75.8720804,537.540824 C75.9243189,537.761949 75.9243189,537.761949 75.9354885,537.809625 L76.0897614,538.468182 L75.9060229,539.119134 C75.8697549,539.247624 75.7981569,539.522974 75.7027832,539.928284 C75.5396339,540.621621 75.375519,541.411871 75.2218947,542.281922 C74.5052816,546.340459 74.2736778,550.531145 74.8070627,554.378215 C74.9758114,555.595324 75.21965,556.751015 75.54207,557.836843 C76.6719914,561.642129 79.8569759,565.842319 84.4690493,570.066139 C86.6211956,572.037113 88.9369552,573.879947 91.2529655,575.537642 C92.0630882,576.117491 92.8139486,576.631812 93.4853246,577.073976 C93.8817291,577.335045 94.1588358,577.51121 94.2965024,577.595974 L102.288557,582.516864 L92.9032864,582.447695 C84.9189804,582.388851 78.2416192,580.657624 71.0874662,575.331986 C64.6046614,570.506107 56.6822043,561.534611 47.512533,549.233512 C41.17271,540.72865 35.9674376,533.114633 28.018035,521.076481 C26.9743442,519.495972 25.8731917,517.826255 24.6480705,515.966769 C24.5254855,515.780707 24.5254855,515.780707 24.4029065,515.594639 C23.5370572,514.280309 22.6565774,512.943065 21.4699236,511.140306 C20.742117,510.034596 20.742117,510.034596 20.0194704,508.936698 C19.2998829,507.843481 19.0076157,507.399488 18.5873723,506.761172 C16.3014982,503.289112 14.6697054,500.813674 13.157686,498.525807 C9.32257888,492.722829 6.68801213,488.780739 4.94061987,486.244775 C-0.216162783,478.760815 -2.59286682,473.595016 -2.59286678,468.753821 C-2.59286676,465.842271 -1.08919794,463.521883 1.2647099,461.768273 C1.97391002,461.239935 2.67623,460.817762 3.31956896,460.490736 Z" id="Combined-Shape" stroke-width="5.24084645"></path>
                </g>
            </g>
        </g>
    </g>
</svg>