<?xml version="1.0" encoding="UTF-8"?>
<svg width="196px" height="196px" viewBox="0 0 196 196" version="1.1" xmlns="http://www.w3.org/2000/svg" xmlns:xlink="http://www.w3.org/1999/xlink">
    <!-- Generator: Sketch 53.2 (72643) - https://sketchapp.com -->
    <title>icon</title>
    <desc>Created with Sketch.</desc>
    <g id="icon" stroke="none" stroke-width="1" fill="none" fill-rule="evenodd">
        <g id="Toucan" transform="translate(98.000000, 98.000000) rotate(4.500000) translate(-98.000000, -98.000000) translate(23.000000, 19.000000)" fill="#000000">
            <g id="Border" transform="translate(0.000000, 0.000000)">
                <path d="M146.267376,75.0560773 L146.30385,75.107057 L146.418027,75.0253665 L146.267376,75.0560773 Z M145.611334,74.1343615 L146.574148,73.4454954 L149.652509,72.8195152 L150.388639,76.4358664 L147.310311,77.06184 L146.152451,76.8042102 L87.4096177,88.7494815 L87.5296905,89.3393574 L85.9905471,90.5507063 L85.3335526,90.4817778 L71.1973861,100.559867 C71.0929343,100.821097 70.9188094,101.055209 70.6762468,101.245595 L69.5879473,102.022827 C69.5001724,102.124712 69.3999715,102.21623 69.2888493,102.295453 C68.5314204,102.835446 67.4794902,102.659503 66.9391639,101.902379 C66.398707,101.145073 66.5748216,100.09319 67.3324335,99.5530661 C67.4230599,99.4884559 67.5191016,99.4333415 67.6193314,99.3881799 L68.792711,98.5525969 C69.0596941,98.3825243 69.3657593,98.2970874 69.6747399,98.2995711 L81.3386942,89.9839951 L76.9585316,90.8746949 L76.415161,88.2053045 L80.0267873,87.4708855 L69.8671278,85.2196915 L70.4570258,82.5601902 L84.547733,85.6824322 L84.9417088,85.4642296 L86.8253326,85.8855095 L86.8651601,86.0803122 L145.611334,74.1343615 Z" id="Combined-Shape" stroke="#000000" stroke-width="1.19402985"></path>
                <path d="M64.2554915,149.745668 L30.9144779,16.9622839" id="String-Copy" stroke="#000000" stroke-width="1.7644181" stroke-linecap="square"></path>
                <path d="M44.7079433,7.48135379 C44.9103042,5.03699032 46.1453384,0.352713964 46.1453384,0.352713964 L46.9585053,0.352036809 C46.9585053,0.352036809 47.8039327,4.20384663 47.2464296,7.88331926 C45.5685103,18.9574432 44.4207574,20.94699 42.5899997,25.8876104 C40.7592421,30.8282309 40.3807625,31.7923586 37.9254063,38.1635426 C35.5782383,44.2539988 37.2030492,49.3700008 39.366311,51.7527831 C40.1182567,52.5810337 41.1838481,53.5951622 41.1838481,53.5951622 C41.1838481,53.5951622 40.0278689,53.5130784 38.7041852,52.406132 C38.7041852,52.406132 36.1427614,50.2881606 35.3711915,46.5005198 C34.5713544,42.5741157 35.6863082,38.3424016 36.9413206,35.1913842 C39.4301812,28.9424873 40.7174841,25.6909046 42.0404763,20.9489725 C43.2622827,16.5697157 44.2562156,12.9378745 44.7079433,7.48135379 Z" id="Path-26" stroke="#000000" stroke-width="1.19402985" transform="translate(41.269077, 26.973600) scale(1, -1) rotate(-337.000000) translate(-41.269077, -26.973600) "></path>
                <path d="M72.9198075,111.800247 C72.981625,111.046525 73.1383601,110.060609 73.3708408,108.893177 C73.4510035,108.49063 73.5391674,108.071845 73.6340336,107.640726 C73.7948338,106.909969 73.9669917,106.178773 74.139155,105.481674 C74.2425327,105.063091 74.3230774,104.748362 74.3694096,104.572237 L74.4865074,104.127109 L76.2399785,104.127109 L76.3432528,104.595604 C76.3598114,104.670721 76.3875939,104.807668 76.4228239,104.999776 C76.4809169,105.316557 76.5388648,105.675037 76.5928779,106.068583 C76.8561898,107.987108 76.9337573,109.976243 76.7114576,111.847292 C76.6916458,112.014044 76.6694722,112.178976 76.6448848,112.342013 C75.9568349,116.904415 75.3307924,120.116916 74.6537701,122.675254 C74.234609,124.259185 73.8086367,125.567121 73.2100714,127.178103 C73.0491473,127.611215 72.2222141,129.77652 71.971389,130.454253 C71.1925112,132.558794 70.696456,133.888515 70.2050675,135.187889 C70.1823368,135.247987 70.1823368,135.247987 70.1595998,135.308067 C69.5772541,136.846623 69.6359528,136.693818 67.3126453,142.729225 C65.3244162,147.894178 66.1589496,152.95735 68.6500888,155.698895 C68.7588757,155.818617 68.8786269,155.946966 69.0079499,156.08268 C69.0951575,156.173929 69.0951575,156.173929 69.1830797,156.26494 C69.4575663,156.548369 69.7524359,156.843237 70.047403,157.131793 C70.2243694,157.304913 70.3617064,157.437134 70.4394032,157.511032 L71.6456526,158.658307 L69.9852103,158.539111 C69.2901356,158.489214 68.2620182,158.129262 67.1660698,157.213125 C67.036083,157.105684 66.8230388,156.907595 66.554734,156.621187 C66.1142527,156.150985 65.6751498,155.597621 65.2656463,154.963169 C64.4983178,153.77433 63.9239113,152.439497 63.6224302,150.966353 C62.8958495,147.41602 63.5835787,143.419643 65.2138502,139.322116 C68.290731,131.588679 69.1325252,129.279865 70.2825116,125.149554 C71.955595,119.140477 72.5437531,116.385363 72.9198075,111.800247 Z" id="Path-26" stroke="#000000" stroke-width="1.19402985"></path>
                <path d="M66.4854686,61.3320013 L68.8465984,60.3569056 L68.4686577,60.7499138 L68.6127781,61.1814061 C68.5580055,61.0174184 71.3776056,65.8893722 72.757766,69.0234969 C73.0124279,69.6017935 73.260475,70.2137562 73.5017999,70.8552629 C74.1027128,72.4526517 74.636698,74.160532 75.098226,75.8679363 C75.2596764,76.4652158 75.4006075,77.0200163 75.5202336,77.5183346 C75.5922801,77.8184535 75.6413952,78.0339086 75.6648794,78.1422393 C75.6824869,78.2179486 75.7126145,78.3532984 75.7510995,78.536084 C75.8149886,78.8395267 75.8788384,79.1657533 75.9384896,79.5027175 C76.0081827,79.8964076 76.0675636,80.279325 76.1134271,80.6426358 C76.2339606,81.5974505 76.2553694,82.3419952 76.1275764,82.8843308 C76.0753116,83.0611222 75.9940617,83.3804421 75.9123124,83.7912379 C75.7856156,84.4278983 75.7061562,85.0604585 75.6964937,85.6427187 C75.6912062,85.9613392 75.7073114,86.2557661 75.7462189,86.5206597 C75.7808341,86.7563304 76.0488792,87.0587181 76.4962339,87.352532 C76.6944756,87.4827333 76.9103233,87.6004678 77.1264537,87.7023155 C77.2552028,87.7629863 77.3529202,87.8038535 77.4030383,87.8228211 L77.7197129,87.9426693 L78.1806857,90.5172077 L78.0660797,90.7089144 C78.0141104,90.7958459 77.9283939,90.9602845 77.8422056,91.1679735 C77.7371034,91.4212395 77.6641332,91.6669357 77.636717,91.8827882 C77.6258969,91.9679764 77.6225516,92.0461123 77.6265939,92.1159009 C77.6446238,92.4271823 77.6778423,92.6957234 77.7436234,93.1106729 C77.7610071,93.2196238 77.7610071,93.2196238 77.7788843,93.3308358 C77.9744882,94.5508776 78.0188166,95.3537683 77.8869924,96.7919009 C77.8152086,97.5750238 77.6649167,98.2873702 77.4171291,99.1604268 C77.3953901,99.237022 77.140731,100.101572 77.084386,100.315605 C76.9934782,100.660928 76.9514406,100.90326 76.9514407,101.087801 C76.9514408,101.16237 77.0052935,101.282186 77.1073415,101.413596 C77.1817555,101.50942 77.2569241,101.582736 77.2955119,101.614345 L77.501021,101.782687 L77.5135431,102.048048 C77.5151596,102.082304 77.5174519,102.143828 77.5197017,102.22963 C77.5432269,103.126826 77.5082606,104.168291 77.3668768,105.169692 C77.3526695,105.27032 77.3374672,105.369436 77.3212407,105.466956 C76.9788993,107.524424 76.193705,109.748991 74.9383585,112.530353 C74.6989647,113.060757 74.5722213,113.297148 74.4038154,113.484231 C74.2173686,113.691355 74.0272809,113.785728 73.7401063,113.856986 C73.7022829,113.866371 73.6584865,113.87658 73.5784094,113.89514 C72.5280643,114.141897 71.8247871,113.585285 71.5220705,112.118776 C71.1621288,110.375039 71.2527849,107.137969 71.6048,104.4476 C71.5778111,104.336946 71.5413528,104.186834 71.4979343,104.007027 C71.3978093,103.592384 71.2976764,103.172709 71.2041605,102.773763 C71.1887247,102.707866 71.1887247,102.707866 71.1733087,102.64186 C70.9012804,101.476217 70.7651382,100.839843 70.7625049,100.630883 C70.7631239,100.679999 71.8517979,97.1853107 72.4109795,94.2370746 C72.4366417,94.1011785 72.4366417,94.1011785 72.4623019,93.9628617 C72.85806,91.8200031 72.6461029,90.8834642 71.8950693,90.414282 C71.4426125,90.1316254 70.9953934,90.0785022 70.6147614,90.1523085 C70.5689197,90.1611974 70.5429165,90.1683067 70.540338,90.1691934 L69.8524959,90.4057399 L69.6303158,88.76988 L72.112591,82.0120557 L71.3471133,80.6216363 L69.3529915,80.5595692 C69.2485726,80.5897741 69.1406799,80.6079668 69.0253702,80.6067926 C68.5650286,80.6021051 68.2030937,80.2685785 68.2040743,79.7781219 C68.1951819,79.6231568 68.1819699,79.353729 68.1687852,79.0066406 C68.1456521,78.3976596 68.1322931,77.7866627 68.1337176,77.2146738 C68.1354112,76.5346485 68.1580044,75.9566047 68.2065385,75.5067648 C68.4068747,73.6499442 67.6645584,70.1552014 66.4551057,68.0224762 C66.0574936,67.321335 65.710514,66.773921 65.3454087,66.252026 C65.2353862,66.0947557 64.7028523,65.3630749 64.571297,65.1664712 C64.3752105,64.8734282 64.2225179,64.6040519 64.0821839,64.2934277 C63.9182034,63.9304629 63.7575654,63.5957136 63.6045747,63.293152 L63.3292887,62.7487329 L63.8795304,62.485278 C64.1238077,62.3683184 64.3682115,62.2537977 64.6127428,62.1417383 L64.4816668,62.1285702 L66.4854686,61.3320013 Z M68.1100807,61.9833715 C68.0780862,61.9157342 67.9985103,61.7868201 67.8855487,61.6553297 C67.8316,61.5925318 67.7741057,61.534426 67.7129261,61.4819608 L67.4802502,61.5596756 C67.4786055,61.5547516 67.5953391,61.7547951 67.7936046,62.1021337 C67.8990906,62.0620546 68.0045826,62.0224666 68.1100807,61.9833715 Z M70.8439413,88.9288903 C70.8341163,88.9291988 70.8243053,88.9295578 70.8145087,88.9299669 L70.8022656,89.0423497 L70.8439413,88.9288903 Z M68.3498612,67.2583017 C68.7177765,68.030719 69.3940984,69.8307427 69.7495867,70.9333076 C69.7578841,70.7390124 69.7499443,70.4718544 69.7189477,70.1633563 C69.6938529,69.9135974 69.6563368,69.6455266 69.6097087,69.3695711 C69.554959,69.0455503 69.5002953,68.7791432 69.4950161,68.719236 C69.4756928,68.672568 69.4311158,68.5775553 69.3624341,68.4509877 C69.2461728,68.2367395 69.1078267,68.0224219 68.9499441,67.8250255 C68.7610691,67.58888 68.5594829,67.3964815 68.3498612,67.2583017 Z M69.8831059,71.367269 C69.8843168,71.3714737 69.8855178,71.3756558 69.886709,71.3798151 C69.8852603,71.3747568 69.883955,71.3701603 69.8827538,71.3659746 Z M68.102468,67.1225425 C68.1001286,67.1215148 68.0977886,67.1204939 68.0954478,67.11948 C68.1024702,67.1225218 68.1098418,67.1234457 68.1174358,67.1228469 Z M71.7386478,72.2987723 C71.6778796,72.1777841 71.560671,72.1958584 71.5367153,72.3640003 C71.489724,72.6938266 71.3958099,73.0691975 71.2626394,73.4848556 C71.1807858,73.7403408 71.085296,74.00708 70.9788678,74.281408 C70.8541973,74.6027571 70.7209991,74.9182041 70.5877588,75.2151558 C70.5265481,75.3515758 70.4754126,75.4618924 70.4381447,75.540351 C70.4155506,75.6419451 70.4167802,75.645624 70.4162854,75.6453205 C70.4406156,75.6602438 70.5211518,75.6675318 70.4917229,75.6791937 L72.19089,74.996318 C72.4905921,74.8737173 72.5414516,74.78177 72.454221,74.462273 L71.7386478,72.2987723 Z M73.593316,88.7118898 L74.5757676,88.5297891 C74.5731176,88.5286513 74.5695614,88.525704 74.5643418,88.5193001 C74.4313109,88.3560812 74.4479435,88.381352 74.2004393,87.9895267 C74.1141124,87.8528621 74.0619427,87.7851589 73.9924857,87.7222553 C73.9516233,87.6852483 73.8674941,87.6934793 73.8461615,87.7423533 C73.8371883,87.7629114 73.8249887,87.7959144 73.8110962,87.8383267 C73.7854766,87.9165406 73.7568617,88.0180029 73.726854,88.1359326 C73.6782959,88.3267653 73.6355799,88.5202374 73.593316,88.7118898 Z M75.2303921,92.5796067 C75.2391378,92.5383623 74.9561645,93.892303 74.8868879,94.2026954 C74.8301623,94.4568534 74.7770071,94.679299 74.7209588,94.8949081 C74.612687,95.3114137 74.4906915,95.7126078 74.331922,96.1700063 C74.2335657,96.4533605 74.2571556,96.5274461 74.3452538,96.5274461 C74.5232207,96.5274461 75.0207973,96.2402634 75.5592021,95.6794628 C75.5880655,95.6493989 75.6968736,95.5396978 75.7188487,95.5163434 C75.8141917,95.4150162 75.8309977,95.3724984 75.8309976,95.1273639 C75.8309976,94.7834035 75.8085362,94.4637594 75.762519,94.1091341 C75.7198489,93.7803033 75.4919018,92.467902 75.4810136,92.4002733 C75.487835,92.4426423 75.4209714,92.390296 75.3493495,92.3825145 C75.2891212,92.3759708 75.2706234,92.3898772 75.2303921,92.5796067 Z M73.5088041,99.1990743 C73.4588459,99.2397117 73.4566514,99.2414529 73.4142827,99.275069 C73.371191,99.3095545 73.3489542,99.3289141 73.3298055,99.3485362 C73.2301819,99.4506226 73.1187394,99.6748899 72.949646,100.21324 C72.8929817,100.393644 72.8850284,100.692981 72.9471997,100.858638 C72.9881521,100.967757 73.0218438,100.983711 73.3023519,100.905228 C73.4167144,100.87323 73.5328357,100.849195 73.7124712,100.817267 C74.1740949,100.735218 74.0704989,100.75418 74.1909255,100.726821 C74.5567553,100.643709 74.7619485,100.537092 74.8571304,100.389356 C75.1507629,99.9335966 75.2966009,99.4440989 75.49041,98.3895182 C75.5637822,97.9902751 75.5357993,97.961381 75.2068485,98.114142 C75.1388878,98.1457022 75.0680761,98.1808304 74.9947373,98.2193024 C74.8227892,98.3095028 74.6396845,98.4166099 74.4495077,98.5370162 C74.2200119,98.6823165 73.9926539,98.8389128 73.7786085,98.9955142 C73.6518588,99.0882477 73.5584844,99.1597045 73.5088041,99.1990743 Z M75.2693479,105.333285 C75.1483326,105.544813 74.9695167,107.257575 74.9121511,108.397173 C75.1908281,107.644907 75.4349625,106.816363 75.4788617,106.327924 C75.5227678,105.839407 75.5117914,105.733571 75.3861021,105.427872 C75.37079,105.39063 75.2944506,105.360988 75.2750135,105.341084 Z M74.9125419,109.354012 C74.9127794,109.355267 74.9130194,109.356505 74.9132617,109.357726 C74.9126433,109.354611 74.9119302,109.351651 74.9110687,109.348822 Z M75.0832634,76.4039853 L75.2119553,76.9611271 L76.7568359,76.5886965 C76.7501953,76.5904361 76.7792033,76.5775033 76.8070236,76.5548693 C76.8649318,76.5077566 76.8855181,76.4512321 76.8441177,76.2719991 C76.8104998,76.1264581 76.7739255,76.0787283 76.7337232,76.0592418 C76.7076144,76.0465866 76.6663075,76.0424529 76.6344892,76.0460392 L75.0832634,76.4039853 Z M76.6314668,76.0464069 C76.6314347,76.0464111 76.6314026,76.0464153 76.6313704,76.0464195 C76.6311764,76.0464645 76.6310189,76.046501 76.6310128,76.0465048 Z M68.9051259,80.7458055 L68.4505661,79.5127529 L69.1340633,79.3751529 L72.735864,78.6501571 C73.391641,78.5051301 73.9176701,78.7073108 74.2348844,79.137636 C74.3762299,79.3293819 74.4466755,79.5179961 74.4634538,79.6184518 C74.4789651,79.6724685 74.505579,79.7673356 74.5396238,79.8924211 C74.5962553,80.1004929 74.6528894,80.3172615 74.7058928,80.5323282 C74.7311557,80.6348352 74.7550328,80.7347348 74.7773027,80.8314162 C74.8940023,81.3380505 74.9598307,81.7182432 74.9598307,81.9754122 C74.9598307,82.5278854 74.7722604,83.4286523 74.4418505,84.6258638 C74.3783962,84.8557849 74.3103885,85.0935792 74.2384558,85.3377463 C74.0842848,85.8610618 73.9193179,86.389684 73.7543572,86.8973947 C73.6552966,87.2022802 73.578071,87.432977 73.5063929,87.6290551 C72.6799228,89.3412701 68.3894511,90.4192709 68.0847508,89.091598 C67.916532,88.3586173 68.8718511,86.0462495 69.885777,84.2365566 C69.9788769,84.0703885 70.5308595,83.1104325 70.6466589,82.8935482 C70.8375578,82.5360079 70.9367589,82.2932222 70.9797945,82.0766495 C70.9970581,81.9897721 71.0055067,81.9052772 71.0055067,81.8185499 C71.0055067,81.3379181 70.3353328,80.8995075 69.2733857,80.7853818 L68.9051259,80.7458055 Z M71.1443247,77.5171543 C71.0816599,77.5171543 71.0307367,77.5680516 71.0307367,77.6309888 C71.0307367,77.693926 71.0816599,77.7448233 71.1443247,77.7448233 C71.2069895,77.7448233 71.2579128,77.693926 71.2579128,77.6309888 C71.2579128,77.5680516 71.2069895,77.5171543 71.1443247,77.5171543 Z" id="Combined-Shape" stroke="#000000" stroke-width="1.19402985"></path>
                <path d="M65.3991433,70.2939408 L65.3168503,69.8896638 L65.4871425,69.6725376 C65.5002153,69.6558695 65.5084919,69.6193515 65.4995114,69.5752338 C65.4905234,69.5310788 65.4685812,69.5006301 65.4499492,69.4903469 L65.208434,69.3570524 L65.1261576,68.9528574 C65.0248269,68.4550551 65.3460527,67.9698364 65.8442227,67.8685343 L82.5814016,64.4650528 C83.0789575,64.3638756 83.5647804,64.6853162 83.6659984,65.1825645 L83.938984,66.5236479 C84.0403147,67.0214503 83.719089,67.5066689 83.2209189,67.6079711 L66.48374,71.0114525 C65.9861842,71.1126298 65.5003612,70.7911891 65.3991433,70.2939408 Z M68.050152,69.115898 C68.0136029,69.1335884 67.9741861,69.1469552 67.9324653,69.155439 L68.1738167,69.1063606 C68.1321528,69.1148328 68.0906833,69.1179134 68.050152,69.115898 Z M67.7271562,68.9642751 C67.7068332,68.9422395 67.6882047,68.9179833 67.6715571,68.8916206 L67.7701833,69.0478024 C67.753065,69.0206943 67.7387649,68.9927535 67.7271562,68.9642751 Z M67.8914291,68.335704 C67.955446,68.2835348 68.0326899,68.2453112 68.1203896,68.2274776 L67.6385294,68.3254631 C67.7261546,68.3076447 67.8121465,68.3126754 67.8914291,68.335704 Z M68.2882507,68.8500596 C68.2886974,68.8807819 68.2864591,68.9120587 68.2813036,68.9436683 L68.3110333,68.7613856 C68.3060097,68.7921872 68.2983431,68.821817 68.2882507,68.8500596 Z M69.2344568,68.8750713 C69.1979078,68.8927616 69.158491,68.9061284 69.1167702,68.9146123 L69.3581216,68.8655338 C69.3164577,68.8740061 69.2749882,68.8770866 69.2344568,68.8750713 Z M68.9114611,68.7234484 C68.8911381,68.7014128 68.8725096,68.6771566 68.855862,68.6507939 L68.9544882,68.8069757 C68.9373699,68.7798676 68.9230698,68.7519268 68.9114611,68.7234484 Z M69.075734,68.0948773 C69.1397509,68.0427081 69.2169948,68.0044845 69.3046945,67.9866508 L68.8228343,68.0846364 C68.9104595,68.066818 68.9964514,68.0718486 69.075734,68.0948773 Z M69.4725556,68.6092329 C69.4730023,68.6399552 69.470764,68.671232 69.4656085,68.7028416 L69.4953382,68.5205589 C69.4903146,68.5513605 69.482648,68.5809902 69.4725556,68.6092329 Z M70.4187617,68.6342446 C70.3822127,68.6519349 70.3427959,68.6653017 70.3010751,68.6737856 L70.5424265,68.6247071 C70.5007626,68.6331794 70.4592931,68.6362599 70.4187617,68.6342446 Z M70.0957659,68.4826217 C70.075443,68.460586 70.0568145,68.4363299 70.0401669,68.4099672 L70.1387931,68.566149 C70.1216748,68.5390409 70.1073747,68.5111001 70.0957659,68.4826217 Z M70.2600389,67.8540506 C70.3240558,67.8018814 70.4012997,67.7636577 70.4889994,67.7458241 L70.0071392,67.8438097 C70.0947644,67.8259913 70.1807563,67.8310219 70.2600389,67.8540506 Z M70.6568605,68.3684062 C70.6573072,68.3991284 70.6550688,68.4304053 70.6499134,68.4620149 L70.6796431,68.2797322 C70.6746194,68.3105337 70.6669529,68.3401635 70.6568605,68.3684062 Z M71.6030666,68.3934179 C71.5665176,68.4111082 71.5271008,68.424475 71.48538,68.4329589 L71.7267314,68.3838804 C71.6850675,68.3923527 71.643598,68.3954332 71.6030666,68.3934179 Z M71.2800708,68.241795 C71.2597479,68.2197593 71.2411194,68.1955032 71.2244718,68.1691405 L71.323098,68.3253223 C71.3059797,68.2982142 71.2916796,68.2702734 71.2800708,68.241795 Z M71.4443438,67.6132239 C71.5083607,67.5610547 71.5856046,67.522831 71.6733043,67.5049974 L71.1914441,67.602983 C71.2790693,67.5851646 71.3650612,67.5901952 71.4443438,67.6132239 Z M71.8411654,68.1275795 C71.8416121,68.1583017 71.8393737,68.1895786 71.8342183,68.2211882 L71.863948,68.0389054 C71.8589243,68.069707 71.8512578,68.0993368 71.8411654,68.1275795 Z M72.7873715,68.1525912 C72.7508225,68.1702815 72.7114057,68.1836483 72.6696849,68.1921322 L72.9110363,68.1430537 C72.8693724,68.151526 72.8279029,68.1546065 72.7873715,68.1525912 Z M72.4643757,68.0009683 C72.4440528,67.9789326 72.4254243,67.9546765 72.4087767,67.9283138 L72.5074029,68.0844955 C72.4902846,68.0573875 72.4759845,68.0294467 72.4643757,68.0009683 Z M72.6286487,67.3723972 C72.6926656,67.3202279 72.7699095,67.2820043 72.8576092,67.2641707 L72.375749,67.3621563 C72.4633742,67.3443378 72.5493661,67.3493685 72.6286487,67.3723972 Z M73.0254703,67.8867527 C73.025917,67.917475 73.0236786,67.9487519 73.0185232,67.9803615 L73.0482529,67.7980787 C73.0432292,67.8288803 73.0355627,67.8585101 73.0254703,67.8867527 Z M73.9716764,67.9117645 C73.9351274,67.9294548 73.8957106,67.9428216 73.8539898,67.9513055 L74.0953412,67.902227 C74.0536773,67.9106993 74.0122078,67.9137798 73.9716764,67.9117645 Z M73.6486806,67.7601415 C73.6283577,67.7381059 73.6097292,67.7138498 73.5930816,67.6874871 L73.6917077,67.8436688 C73.6745895,67.8165608 73.6602894,67.78862 73.6486806,67.7601415 Z M73.8129536,67.1315705 C73.8769705,67.0794012 73.9542144,67.0411776 74.0419141,67.023344 L73.5600539,67.1213296 C73.6476791,67.1035111 73.733671,67.1085418 73.8129536,67.1315705 Z M74.2097752,67.645926 C74.2102219,67.6766483 74.2079835,67.7079251 74.2028281,67.7395348 L74.2325577,67.557252 C74.2275341,67.5880536 74.2198676,67.6176834 74.2097752,67.645926 Z M75.1559813,67.6709378 C75.1194323,67.6886281 75.0800155,67.7019949 75.0382947,67.7104788 L75.2796461,67.6614003 C75.2379822,67.6698726 75.1965127,67.6729531 75.1559813,67.6709378 Z M74.8329855,67.5193148 C74.8126626,67.4972792 74.7940341,67.4730231 74.7773865,67.4466603 L74.8760126,67.6028421 C74.8588944,67.5757341 74.8445943,67.5477933 74.8329855,67.5193148 Z M74.9972585,66.8907438 C75.0612754,66.8385745 75.1385193,66.8003509 75.226219,66.7825173 L74.7443588,66.8805029 C74.831984,66.8626844 74.9179759,66.8677151 74.9972585,66.8907438 Z M75.3940801,67.4050993 C75.3945268,67.4358216 75.3922884,67.4670984 75.387133,67.4987081 L75.4168626,67.3164253 C75.411839,67.3472269 75.4041725,67.3768567 75.3940801,67.4050993 Z M76.3402862,67.4301111 C76.3037372,67.4478014 76.2643203,67.4611682 76.2225996,67.469652 L76.463951,67.4205736 C76.4222871,67.4290459 76.3808176,67.4321264 76.3402862,67.4301111 Z M76.0172904,67.2784881 C75.9969675,67.2564525 75.978339,67.2321963 75.9616914,67.2058336 L76.0603175,67.3620154 C76.0431993,67.3349074 76.0288992,67.3069666 76.0172904,67.2784881 Z M76.1815634,66.6499171 C76.2455803,66.5977478 76.3228242,66.5595242 76.4105239,66.5416906 L75.9286636,66.6396762 C76.0162889,66.6218577 76.1022808,66.6268884 76.1815634,66.6499171 Z M76.578385,67.1642726 C76.5788317,67.1949949 76.5765933,67.2262717 76.5714379,67.2578813 L76.6011675,67.0755986 C76.5961439,67.1064002 76.5884773,67.13603 76.578385,67.1642726 Z M77.5245911,67.1892844 C77.4880421,67.2069747 77.4486252,67.2203415 77.4069045,67.2288253 L77.6482559,67.1797469 C77.606592,67.1882192 77.5651225,67.1912997 77.5245911,67.1892844 Z M77.2015953,67.0376614 C77.1812724,67.0156258 77.1626439,66.9913696 77.1459963,66.9650069 L77.2446224,67.1211887 C77.2275041,67.0940806 77.2132041,67.0661399 77.2015953,67.0376614 Z M77.3658683,66.4090903 C77.4298852,66.3569211 77.5071291,66.3186975 77.5948288,66.3008639 L77.1129685,66.3988495 C77.2005938,66.381031 77.2865856,66.3860617 77.3658683,66.4090903 Z M77.7626898,66.9234459 C77.7631365,66.9541682 77.7608982,66.985445 77.7557428,67.0170546 L77.7854724,66.8347719 C77.7804488,66.8655735 77.7727822,66.8952033 77.7626898,66.9234459 Z M78.708896,66.9484576 C78.672347,66.966148 78.6329301,66.9795148 78.5912094,66.9879986 L78.8325608,66.9389202 C78.7908969,66.9473925 78.7494274,66.950473 78.708896,66.9484576 Z M78.3859002,66.7968347 C78.3655773,66.7747991 78.3469488,66.7505429 78.3303012,66.7241802 L78.4289273,66.880362 C78.411809,66.8532539 78.397509,66.8253132 78.3859002,66.7968347 Z M78.5501731,66.1682636 C78.6141901,66.1160944 78.691434,66.0778708 78.7791337,66.0600372 L78.2972734,66.1580228 C78.3848987,66.1402043 78.4708905,66.145235 78.5501731,66.1682636 Z M78.9469947,66.6826192 C78.9474414,66.7133415 78.9452031,66.7446183 78.9400477,66.7762279 L78.9697773,66.5939452 C78.9647537,66.6247468 78.9570871,66.6543766 78.9469947,66.6826192 Z M79.8932009,66.7076309 C79.8566519,66.7253213 79.817235,66.7386881 79.7755143,66.7471719 L80.0168656,66.6980935 C79.9752018,66.7065657 79.9337323,66.7096463 79.8932009,66.7076309 Z M79.5702051,66.556008 C79.5498822,66.5339724 79.5312537,66.5097162 79.5146061,66.4833535 L79.6132322,66.6395353 C79.5961139,66.6124272 79.5818138,66.5844865 79.5702051,66.556008 Z M79.734478,65.9274369 C79.798495,65.8752677 79.8757389,65.8370441 79.9634386,65.8192105 L79.4815783,65.9171961 C79.5692036,65.8993776 79.6551954,65.9044083 79.734478,65.9274369 Z M80.1312996,66.4417925 C80.1317463,66.4725148 80.129508,66.5037916 80.1243526,66.5354012 L80.1540822,66.3531185 C80.1490586,66.3839201 80.141392,66.4135499 80.1312996,66.4417925 Z M81.0775058,66.4668042 C81.0409568,66.4844945 81.0015399,66.4978613 80.9598192,66.5063452 L81.2011705,66.4572667 C81.1595067,66.465739 81.1180372,66.4688196 81.0775058,66.4668042 Z M80.75451,66.3151813 C80.734187,66.2931457 80.7155586,66.2688895 80.698911,66.2425268 L80.7975371,66.3987086 C80.7804188,66.3716005 80.7661187,66.3436597 80.75451,66.3151813 Z M80.9187829,65.6866102 C80.9827999,65.634441 81.0600438,65.5962174 81.1477435,65.5783837 L80.6658832,65.6763693 C80.7535085,65.6585509 80.8395003,65.6635815 80.9187829,65.6866102 Z M81.3156045,66.2009658 C81.3160512,66.2316881 81.3138129,66.2629649 81.3086575,66.2945745 L81.3383871,66.1122918 C81.3333635,66.1430934 81.3256969,66.1727231 81.3156045,66.2009658 Z M82.2618107,66.2259775 C82.2252617,66.2436678 82.1858448,66.2570346 82.144124,66.2655185 L82.3854754,66.21644 C82.3438116,66.2249123 82.302342,66.2279928 82.2618107,66.2259775 Z M81.9388149,66.0743546 C81.9184919,66.0523189 81.8998635,66.0280628 81.8832159,66.0017001 L81.981842,66.1578819 C81.9647237,66.1307738 81.9504236,66.102833 81.9388149,66.0743546 Z M82.1030878,65.4457835 C82.1671048,65.3936143 82.2443487,65.3553906 82.3320484,65.337557 L81.8501881,65.4355426 C81.9378134,65.4177242 82.0238052,65.4227548 82.1030878,65.4457835 Z M82.4999094,65.9601391 C82.5003561,65.9908613 82.4981178,66.0221382 82.4929624,66.0537478 L82.522692,65.8714651 C82.5176684,65.9022666 82.5100018,65.9318964 82.4999094,65.9601391 Z M66.985236,69.9438279 C66.9212437,69.995991 66.8440442,70.0342067 66.7564124,70.0520265 L67.2382727,69.9540409 C67.1505795,69.9718732 67.0645437,69.9668527 66.985236,69.9438279 Z M66.5885417,69.4295225 C66.5880968,69.3987767 66.5903384,69.3674739 66.5954984,69.3358358 L66.5657688,69.5181185 C66.570787,69.4873498 66.5784511,69.4577456 66.5885417,69.4295225 Z M66.826768,69.1635821 C66.8632944,69.1458972 66.9026738,69.1325372 66.9443367,69.1240651 L66.7029854,69.1731435 C66.7447071,69.1646595 66.7862137,69.1615706 66.826768,69.1635821 Z M67.1496065,69.3151609 C67.1699387,69.3372139 67.1885795,69.3614926 67.2052449,69.3878835 L67.1066188,69.2317017 C67.1237217,69.2587854 67.1380086,69.2867034 67.1496065,69.3151609 Z M66.8658471,69.3567247 C66.829298,69.3744151 66.7898812,69.3877819 66.7481604,69.3962657 L66.9895118,69.3471873 C66.9478479,69.3556596 66.9063784,69.3587401 66.8658471,69.3567247 Z M66.5428513,69.2051018 C66.5225283,69.1830662 66.5038998,69.15881 66.4872522,69.1324473 L66.5858784,69.2886291 C66.5687601,69.261521 66.55446,69.2335803 66.5428513,69.2051018 Z M66.7071242,68.5765307 C66.7711411,68.5243615 66.8483851,68.4861379 66.9360847,68.4683043 L66.4542245,68.5662899 C66.5418497,68.5484714 66.6278416,68.5535021 66.7071242,68.5765307 Z M67.1039458,69.0908863 C67.1043925,69.1216086 67.1021542,69.1528854 67.0969988,69.184495 L67.1267284,69.0022123 C67.1217048,69.0330139 67.1140382,69.0626437 67.1039458,69.0908863 Z M68.1695409,69.7030012 C68.1055486,69.7551643 68.0283491,69.79338 67.9407173,69.8111998 L68.4225776,69.7132142 C68.3348844,69.7310465 68.2488486,69.7260259 68.1695409,69.7030012 Z M67.7728466,69.1886958 C67.7724017,69.15795 67.7746433,69.1266472 67.7798033,69.0950091 L67.7500737,69.2772918 C67.7550919,69.2465231 67.7627559,69.2169189 67.7728466,69.1886958 Z M68.0110729,68.9227554 C68.0475993,68.9050705 68.0869787,68.8917105 68.1286416,68.8832384 L67.8872902,68.9323168 C67.929012,68.9238328 67.9705186,68.9207439 68.0110729,68.9227554 Z M68.3339114,69.0743342 C68.3542436,69.0963872 68.3728844,69.1206659 68.3895498,69.1470568 L68.2909237,68.990875 C68.3080265,69.0179587 68.3223135,69.0458767 68.3339114,69.0743342 Z M69.3538458,69.4621745 C69.2898535,69.5143376 69.212654,69.5525533 69.1250222,69.5703731 L69.6068825,69.4723875 C69.5191893,69.4902198 69.4331535,69.4851992 69.3538458,69.4621745 Z M68.9571515,68.9478691 C68.9567066,68.9171233 68.9589481,68.8858205 68.9641082,68.8541824 L68.9343786,69.0364651 C68.9393968,69.0056964 68.9470608,68.9760922 68.9571515,68.9478691 Z M69.1953778,68.6819287 C69.2319042,68.6642438 69.2712836,68.6508838 69.3129465,68.6424117 L69.0715951,68.6914901 C69.1133169,68.6830061 69.1548235,68.6799172 69.1953778,68.6819287 Z M69.5182163,68.8335075 C69.5385485,68.8555605 69.5571893,68.8798392 69.5738547,68.9062301 L69.4752286,68.7500483 C69.4923314,68.7771319 69.5066184,68.80505 69.5182163,68.8335075 Z M70.5381507,69.2213478 C70.4741584,69.2735108 70.3969589,69.3117266 70.3093271,69.3295464 L70.7911874,69.2315608 C70.7034942,69.2493931 70.6174584,69.2443725 70.5381507,69.2213478 Z M70.1414564,68.7070424 C70.1410115,68.6762966 70.143253,68.6449937 70.1484131,68.6133556 L70.1186835,68.7956384 C70.1237017,68.7648697 70.1313657,68.7352655 70.1414564,68.7070424 Z M70.3796827,68.441102 C70.4162091,68.4234171 70.4555885,68.4100571 70.4972514,68.401585 L70.2559,68.4506634 C70.2976218,68.4421794 70.3391284,68.4390905 70.3796827,68.441102 Z M70.7025212,68.5926808 C70.7228534,68.6147337 70.7414942,68.6390125 70.7581596,68.6654034 L70.6595335,68.5092216 C70.6766363,68.5363052 70.6909233,68.5642233 70.7025212,68.5926808 Z M71.7224556,68.9805211 C71.6584633,69.0326841 71.5812638,69.0708999 71.493632,69.0887197 L71.9754922,68.9907341 C71.8877991,69.0085664 71.8017633,69.0035458 71.7224556,68.9805211 Z M71.3257613,68.4662157 C71.3253164,68.4354699 71.3275579,68.404167 71.332718,68.3725289 L71.3029884,68.5548117 C71.3080066,68.524043 71.3156706,68.4944388 71.3257613,68.4662157 Z M71.5639875,68.2002752 C71.600514,68.1825903 71.6398934,68.1692303 71.6815563,68.1607582 L71.4402049,68.2098367 C71.4819267,68.2013527 71.5234333,68.1982638 71.5639875,68.2002752 Z M71.8868261,68.3518541 C71.9071583,68.373907 71.9257991,68.3981857 71.9424645,68.4245766 L71.8438384,68.2683949 C71.8609412,68.2954785 71.8752282,68.3233966 71.8868261,68.3518541 Z M72.9067605,68.7396944 C72.8427682,68.7918574 72.7655687,68.8300732 72.6779369,68.847893 L73.1597971,68.7499074 C73.072104,68.7677397 72.9860682,68.7627191 72.9067605,68.7396944 Z M72.5100662,68.225389 C72.5096212,68.1946432 72.5118628,68.1633403 72.5170229,68.1317022 L72.4872933,68.313985 C72.4923115,68.2832163 72.4999755,68.2536121 72.5100662,68.225389 Z M72.7482924,67.9594485 C72.7848189,67.9417636 72.8241983,67.9284036 72.8658612,67.9199315 L72.6245098,67.96901 C72.6662315,67.9605259 72.7077382,67.9574371 72.7482924,67.9594485 Z M73.071131,68.1110274 C73.0914632,68.1330803 73.110104,68.157359 73.1267694,68.1837499 L73.0281433,68.0275682 C73.0452461,68.0546518 73.059533,68.0825699 73.071131,68.1110274 Z M74.0910654,68.4988677 C74.0270731,68.5510307 73.9498736,68.5892465 73.8622418,68.6070663 L74.344102,68.5090807 C74.2564089,68.526913 74.1703731,68.5218924 74.0910654,68.4988677 Z M73.6943711,67.9845623 C73.6939261,67.9538165 73.6961677,67.9225136 73.7013278,67.8908755 L73.6715981,68.0731583 C73.6766164,68.0423896 73.6842804,68.0127854 73.6943711,67.9845623 Z M73.9325973,67.7186218 C73.9691238,67.7009369 74.0085032,67.6875769 74.0501661,67.6791048 L73.8088147,67.7281833 C73.8505364,67.7196992 73.8920431,67.7166103 73.9325973,67.7186218 Z M74.2554359,67.8702007 C74.2757681,67.8922536 74.2944089,67.9165323 74.3110743,67.9429232 L74.2124481,67.7867414 C74.229551,67.8138251 74.2438379,67.8417432 74.2554359,67.8702007 Z M75.2753703,68.2580409 C75.211378,68.310204 75.1341785,68.3484198 75.0465467,68.3662396 L75.5284069,68.268254 C75.4407138,68.2860863 75.354678,68.2810657 75.2753703,68.2580409 Z M74.878676,67.7437356 C74.878231,67.7129898 74.8804726,67.6816869 74.8856327,67.6500488 L74.855903,67.8323316 C74.8609213,67.8015629 74.8685853,67.7719586 74.878676,67.7437356 Z M75.1169022,67.4777951 C75.1534287,67.4601102 75.1928081,67.4467502 75.234471,67.4382781 L74.9931196,67.4873566 C75.0348413,67.4788725 75.076348,67.4757836 75.1169022,67.4777951 Z M75.4397407,67.629374 C75.460073,67.6514269 75.4787138,67.6757056 75.4953792,67.7020965 L75.396753,67.5459147 C75.4138559,67.5729984 75.4281428,67.6009165 75.4397407,67.629374 Z M76.4596752,68.0172142 C76.3956829,68.0693773 76.3184834,68.1075931 76.2308516,68.1254129 L76.7127118,68.0274273 C76.6250187,68.0452595 76.5389829,68.040239 76.4596752,68.0172142 Z M76.0629808,67.5029089 C76.0625359,67.4721631 76.0647775,67.4408602 76.0699376,67.4092221 L76.0402079,67.5915048 C76.0452262,67.5607361 76.0528902,67.5311319 76.0629808,67.5029089 Z M76.3012071,67.2369684 C76.3377335,67.2192835 76.377113,67.2059235 76.4187759,67.1974514 L76.1774245,67.2465299 C76.2191462,67.2380458 76.2606529,67.2349569 76.3012071,67.2369684 Z M76.6240456,67.3885473 C76.6443778,67.4106002 76.6630187,67.4348789 76.6796841,67.4612698 L76.5810579,67.305088 C76.5981608,67.3321717 76.6124477,67.3600898 76.6240456,67.3885473 Z M77.6439801,67.7763875 C77.5799878,67.8285506 77.5027883,67.8667663 77.4151565,67.8845861 L77.8970167,67.7866006 C77.8093236,67.8044328 77.7232878,67.7994123 77.6439801,67.7763875 Z M77.2472857,67.2620822 C77.2468408,67.2313363 77.2490824,67.2000335 77.2542425,67.1683954 L77.2245128,67.3506781 C77.2295311,67.3199094 77.2371951,67.2903052 77.2472857,67.2620822 Z M77.485512,66.9961417 C77.5220384,66.9784568 77.5614178,66.9650968 77.6030808,66.9566247 L77.3617294,67.0057032 C77.4034511,66.9972191 77.4449578,66.9941302 77.485512,66.9961417 Z M77.8083505,67.1477205 C77.8286827,67.1697735 77.8473236,67.1940522 77.863989,67.2204431 L77.7653628,67.0642613 C77.7824657,67.091345 77.7967526,67.1192631 77.8083505,67.1477205 Z M78.828285,67.5355608 C78.7642927,67.5877239 78.6870932,67.6259396 78.5994614,67.6437594 L79.0813216,67.5457738 C78.9936285,67.5636061 78.9075927,67.5585856 78.828285,67.5355608 Z M78.4315906,67.0212554 C78.4311457,66.9905096 78.4333873,66.9592068 78.4385474,66.9275687 L78.4088177,67.1098514 C78.413836,67.0790827 78.4215,67.0494785 78.4315906,67.0212554 Z M78.6698169,66.755315 C78.7063433,66.7376301 78.7457227,66.7242701 78.7873857,66.715798 L78.5460343,66.7648764 C78.587756,66.7563924 78.6292626,66.7533035 78.6698169,66.755315 Z M78.9926554,66.9068938 C79.0129876,66.9289468 79.0316285,66.9532255 79.0482939,66.9796164 L78.9496677,66.8234346 C78.9667706,66.8505183 78.9810575,66.8784363 78.9926554,66.9068938 Z M80.0125899,67.2947341 C79.9485976,67.3468972 79.8713981,67.3851129 79.7837663,67.4029327 L80.2656265,67.3049471 C80.1779334,67.3227794 80.0918976,67.3177588 80.0125899,67.2947341 Z M79.6158955,66.7804287 C79.6154506,66.7496829 79.6176922,66.7183801 79.6228522,66.686742 L79.5931226,66.8690247 C79.5981409,66.838256 79.6058049,66.8086518 79.6158955,66.7804287 Z M79.8541218,66.5144883 C79.8906482,66.4968034 79.9300276,66.4834434 79.9716906,66.4749713 L79.7303392,66.5240497 C79.7720609,66.5155657 79.8135675,66.5124768 79.8541218,66.5144883 Z M80.1769603,66.6660671 C80.1972925,66.6881201 80.2159334,66.7123988 80.2325988,66.7387897 L80.1339726,66.5826079 C80.1510755,66.6096916 80.1653624,66.6376096 80.1769603,66.6660671 Z M81.1968948,67.0539074 C81.1329025,67.1060705 81.055703,67.1442862 80.9680712,67.162106 L81.4499314,67.0641204 C81.3622383,67.0819527 81.2762025,67.0769321 81.1968948,67.0539074 Z M80.8002004,66.539602 C80.7997555,66.5088562 80.8019971,66.4775534 80.8071571,66.4459153 L80.7774275,66.628198 C80.7824458,66.5974293 80.7901098,66.5678251 80.8002004,66.539602 Z M81.0384267,66.2736616 C81.0749531,66.2559767 81.1143325,66.2426167 81.1559955,66.2341446 L80.9146441,66.283223 C80.9563658,66.274739 80.9978724,66.2716501 81.0384267,66.2736616 Z M81.3612652,66.4252404 C81.3815974,66.4472934 81.4002382,66.4715721 81.4169037,66.497963 L81.3182775,66.3417812 C81.3353804,66.3688649 81.3496673,66.3967829 81.3612652,66.4252404 Z M86.9164573,61.9177495 L86.9410615,61.9127463 C87.6565081,61.7672612 88.3545842,62.2290721 88.5001993,62.9444285 C88.645833,63.659876 88.1836733,64.3577671 87.4681356,64.5032706 L87.4437647,64.5082264 L89.1350562,72.8169519 L89.0734792,72.8294735 L89.1652143,73.2801361 L87.2055947,73.678622 L87.0570785,72.9490138 L86.0275128,72.2679066 L83.954318,62.0830239 L84.3527661,61.4813415 L84.0901967,60.1914296 L86.6814456,59.6645028 L87.0641832,61.5447591 L86.8494224,61.5884304 L86.9164573,61.9177495 Z M70.9993725,65.968447 C71.2666586,66.0963668 71.4846888,66.3541143 71.5815788,66.777975 C71.705994,67.3222493 71.4920384,67.7647095 71.0853911,67.9995352 C70.9147462,68.0980772 70.7533378,68.1412254 70.6729287,68.1478828 L70.4816681,68.1867753 L70.3198882,68.4234204 L70.1954552,68.4487237 L70.1958291,68.4505605 L68.8946585,68.7151516 L68.6514234,68.5593432 L68.5133348,68.5865436 C68.476139,68.5972115 68.476139,68.5972115 68.3990929,68.6129304 C68.2166675,68.6453793 68.0221053,68.6438627 67.820566,68.5796412 C67.4416001,68.4588818 67.1710034,68.1453014 67.0902262,67.6934405 C67.0148068,67.2715499 67.1119479,66.9511426 67.3044904,66.7285858 L67.1546671,65.9925559 C66.9998547,65.2320168 67.7852452,64.679715 68.771533,64.4791548 C69.7577447,64.2786101 70.6964409,64.4802497 70.8512198,65.2406244 L70.9993725,65.968447 Z M69.004839,67.3677338 L68.9798208,67.4026199 L69.0421688,67.391646 L69.004839,67.3677338 Z M69.6602208,67.2726418 L69.7392039,67.2536165 L69.6924933,67.2254349 L69.6602208,67.2726418 Z M70.4188357,67.0433157 C70.4179167,67.0433593 70.417468,67.0435944 70.4175731,67.044054 C70.4178828,67.0454091 70.4185003,67.0459343 70.4193916,67.0457613 Z M69.131091,67.4486067 L68.8939074,67.4968376 L69.0128748,68.0818791 L69.3349,67.57916 L69.131091,67.4486067 Z M68.2643321,67.4879319 C68.2656745,67.4876782 68.2661472,67.4862542 68.2656227,67.4833203 C68.2654994,67.4826306 68.2647322,67.4826157 68.2634428,67.4831521 Z M82.3811997,66.8130807 C82.3172074,66.8652438 82.2400079,66.9034595 82.1523761,66.9212793 L82.6342363,66.8232937 C82.5465432,66.841126 82.4605073,66.8361054 82.3811997,66.8130807 Z M81.9845053,66.2987753 C81.9840604,66.2680295 81.986302,66.2367266 81.991462,66.2050885 L81.9617324,66.3873713 C81.9667507,66.3566026 81.9744147,66.3269984 81.9845053,66.2987753 Z M82.2227316,66.0328349 C82.259258,66.01515 82.2986374,66.00179 82.3403004,65.9933179 L82.098949,66.0423963 C82.1406707,66.0339123 82.1821773,66.0308234 82.2227316,66.0328349 Z M82.5455701,66.1844137 C82.5659023,66.2064666 82.5845431,66.2307454 82.6012085,66.2571363 L82.5025824,66.1009545 C82.5196853,66.1280381 82.5339722,66.1559562 82.5455701,66.1844137 Z M69.5585277,71.3390542 L69.4789114,71.3552441 C69.3439286,71.4596015 69.2331516,71.5206486 69.1190966,71.5398265 C69.0799054,71.5521584 69.0484581,71.5605439 69.0010072,71.5697782 C68.8066677,71.6075981 68.5979674,71.6040508 68.3833461,71.5240397 C68.0400178,71.3960466 67.7944815,71.102261 67.6997963,70.6880453 C67.5753811,70.143771 67.7893366,69.7013109 68.195984,69.4664851 C68.3666289,69.3679431 68.5280373,69.3247949 68.6084464,69.3181376 L68.7997069,69.279245 L68.9614869,69.0425999 L70.2624901,68.7780427 L70.262864,68.7798795 L70.3874643,68.7545422 L70.6306994,68.9103506 L70.768788,68.8831502 C70.8059838,68.8724823 70.8059838,68.8724823 70.8830299,68.8567635 C71.0654553,68.8243146 71.2600175,68.8258311 71.4615568,68.8900526 C71.8405228,69.0108121 72.1111194,69.3243924 72.1918966,69.7762534 C72.2862835,70.3042469 72.08257,70.7300671 71.6961866,70.9581194 C71.5216611,71.0611284 71.3559006,71.103155 71.2865179,71.1050654 C71.1073672,71.1414954 70.9787714,71.1286425 70.8148712,71.0854913 L69.5589016,71.340891 L69.5585277,71.3390542 Z M68.7782674,70.397918 C68.7865492,70.3948615 68.796176,70.3917035 68.8064048,70.3891877 C68.7695791,70.3983578 68.7694257,70.3984158 68.7729193,70.3977359 C68.774214,70.3974839 68.7755034,70.3973497 68.7782674,70.397918 Z M68.8630712,70.435166 C68.8653016,70.4339882 68.8656421,70.4300164 68.863802,70.4219663 C68.863273,70.4196525 68.861847,70.4197582 68.859692,70.4216284 Z M71.019518,69.981912 C71.0169023,69.9812027 71.0157917,69.9824109 71.0165001,69.9863736 C71.0174661,69.9917775 71.019294,69.9940136 71.0218634,69.9939295 Z M81.9485521,64.3472023 L84.776662,63.7721102 L85.5127923,67.3884615 L82.6846824,67.9635536 L81.9485521,64.3472023 Z M84.4268233,64.4042773 L84.8863234,64.3108386 L84.8607935,64.1854189 L84.584138,64.0023046 L84.4012459,64.2786244 L84.4268233,64.4042773 Z M84.9757573,67.1009986 L85.0012873,67.2264183 L85.2779428,67.4095326 L85.4608349,67.1332128 L85.4352574,67.0075599 L84.9757573,67.1009986 Z M83.4780725,63.3787377 L85.3587385,62.9963069 L86.3840083,68.0330995 L84.5033422,68.4155302 L83.4780725,63.3787377 Z" id="Combined-Shape" stroke="#000000" stroke-width="1.19402985"></path>
                <path d="M18.5256532,49.444224 C24.1740223,44.051776 31.9686245,39.2916791 46.2659725,32.8026587 C50.9814695,30.6624747 55.8048408,29.1777329 61.5510151,28.6275448 C69.7301737,27.8444019 78.0906102,29.2868553 86.4702,33.5587812 C92.3635688,36.5632285 96.9996083,40.7980042 100.520599,45.9435892 C103.103624,49.7184294 104.940423,53.75999 106.158132,57.801772 C106.584605,59.2173074 106.90341,60.5327387 107.130225,61.7149667 C107.209917,62.1303512 107.272459,62.4999526 107.319798,62.819634 C107.348584,63.0140231 107.366055,63.1501782 107.374155,63.2239611 L107.492259,64.2997543 L106.519279,63.8258456 C94.9418744,58.1868466 84.7274628,57.0670306 70.8156098,61.0903297 C64.6874363,62.8625936 58.7138417,66.2764388 52.813807,70.9674575 C50.4466477,72.8495462 48.2199071,74.8309056 45.9014418,77.0590602 C44.8539465,78.0657526 41.9644442,80.939672 41.5337043,81.345412 C40.4887149,82.3297509 39.427588,83.2224173 38.3513951,84.0186608 C42.3934415,86.6128398 46.5545635,89.5559346 50.0820483,92.5156863 C50.127794,92.2490867 50.1840229,91.9625461 50.252079,91.658206 C50.5123564,90.4942712 50.9006886,89.2865627 51.4413323,88.0733304 C52.2512462,86.2558421 53.0132373,85.6973374 54.909738,85.494504 C56.6381265,85.3096505 58.3662169,84.9797909 60.0445649,84.5464119 C60.9873478,84.3029687 61.8549423,84.042234 62.626826,83.781817 C63.0873578,83.6264435 63.4116512,83.5065307 63.5910173,83.4352037 C69.0903044,81.3769939 72.0057408,79.0769416 74.9865693,74.7650442 C75.0327773,74.6980522 75.0327773,74.6980522 75.0785897,74.6310396 C76.2294175,72.9439329 77.0209073,71.448695 78.1714306,68.9968035 C78.7298878,67.8066701 78.8735371,67.5110999 79.0873122,67.1436888 C79.5058589,66.4243408 79.8636548,66.0852007 80.452131,66.3584017 C81.8707637,67.017004 82.169377,68.8541918 81.7798477,71.4838954 C81.6602406,72.2913599 81.4767,73.1462682 81.2464831,74.0208017 C81.0980898,74.5845083 80.9392001,75.1227701 80.7801902,75.6178605 C80.6843667,75.916215 80.6093284,76.1351635 80.5757164,76.2256547 C80.5578775,76.285118 80.5227235,76.3946989 80.46874,76.5523297 C80.4523457,76.600201 80.4351997,76.6495821 80.4172926,76.7004599 C81.9669432,75.033508 82.8289365,74.3765009 83.5106212,74.9900182 C84.853206,76.1983466 84.5965638,78.220498 83.2741938,80.8867391 C82.9165952,81.6077507 82.4859827,82.3640268 81.9785451,83.179376 C81.4659506,84.0030114 79.9841421,86.212399 80.0445106,86.1189886 C79.7924973,86.5089383 79.5072974,86.8851142 79.1950555,87.246714 C78.9313432,87.5521129 78.6565313,87.8381467 78.3773458,88.1036043 L80.3282396,88.2657831 L80.0056267,89.0256652 C79.9518013,89.1524456 79.848463,89.3844781 79.6972501,89.7067988 C79.4467237,90.2408132 79.1516464,90.8350407 78.8136182,91.474543 C77.8479555,93.3014422 76.7301638,95.1284989 75.4718845,96.8366608 C74.2886142,98.4429953 73.038287,99.8629834 71.724079,101.046276 C69.4902107,103.057616 66.8484146,104.598738 64.0312545,105.734704 C62.6740937,106.281953 61.49909,106.652434 60.6196416,106.87577 C61.1944813,108.859547 61.4452144,110.829364 61.4452145,112.883043 C61.445215,119.317154 59.7723561,123.828495 53.6582896,129.772061 C56.1547666,130.600947 58.0028095,131.245505 59.2890391,131.742231 C60.105871,132.057681 60.6931388,132.312468 61.0585632,132.514497 C61.3022892,132.649243 61.4665959,132.766888 61.5798281,132.916701 C61.8847969,133.320194 61.6973623,133.824985 61.2459867,133.982605 C60.6681218,134.184395 60.0883919,134.350181 59.5077853,134.48178 L58.8285795,134.950028 C56.0894057,136.838429 53.2857485,137.452022 50.5309723,137.088588 L50.5456018,137.391187 C47.5419585,137.832805 44.7991209,137.620054 42.3315541,136.901907 L41.9948292,137.009185 C40.3315933,137.53908 38.3605899,137.373401 36.4623958,136.772697 L36.1443959,136.821513 C36.0688321,136.833113 35.9368479,136.849182 35.7551474,136.864831 C34.186578,136.999925 32.3881675,136.849406 30.6512395,136.186174 C29.9435206,135.915938 29.228433,135.573981 28.5151163,135.175615 L28.253221,135.204851 C28.2269399,135.207655 28.2269399,135.207655 28.1576012,135.212419 C27.7951653,135.233454 27.3129492,135.205854 26.7347422,135.094164 C25.8859152,134.930198 24.9900454,134.611388 24.0728213,134.103155 C17.3877901,130.398988 15.7764708,127.944198 16.2042414,124.189391 C16.2228035,124.02646 16.2375881,123.908499 16.2769567,123.60287 C16.3232569,123.243429 16.3443803,123.06975 16.3708723,122.823032 C17.2288384,117.837669 18.924789,112.795606 21.3268889,109.479465 C21.5971315,109.106391 21.8624019,108.75869 22.1231326,108.435422 L22.1029956,108.29331 C21.8916443,106.801753 21.5056387,105.244733 20.8995193,103.877968 C20.7367921,103.511027 20.5389899,103.157449 20.293239,102.791509 C20.144349,102.569801 13.7805715,95.5202108 10.0677079,90.4214575 C3.56131388,81.4864408 1.85184029,77.6659819 2.17136209,72.9401738 C2.59914382,66.6131741 4.77696288,62.7983593 9.93687652,57.4822924 C10.3605934,57.0457526 11.9671003,55.4162256 12.3308874,55.0425339 C12.3637529,55.0087736 12.8842468,54.4759305 13.0467478,54.3083671 C13.3372411,54.0088241 13.5827478,53.7514544 13.8169157,53.499635 C14.2797527,53.0019094 14.6732858,52.5519513 15.0119126,52.1270446 C15.463772,51.5600544 15.8048005,51.0528857 16.0256439,50.6086792 C16.3549166,49.9463768 16.4382637,49.3993772 16.3201516,49.1474001 C16.2431768,48.9831841 15.9899637,48.9189593 15.3944707,49.0979754 L11.4142149,50.2945127 L14.8967367,48.0259933 C16.1247317,47.2260758 17.9095634,47.8289138 18.5256532,49.444224 Z M0.743445104,104.824826 C0.0903552851,103.450144 0.46833915,101.278252 2.22169348,100.244901 C4.03703147,99.1750201 5.84213512,99.9453273 7.21932784,101.590105 C7.58981248,101.265824 8.06828453,101.116045 8.61346103,101.257435 C9.65420883,101.527349 10.3509222,102.09567 11.0379468,103.295358 C11.2902162,103.735873 11.5477339,104.243046 11.8106613,104.814165 C12.6442892,106.624933 13.5224004,109.05345 14.4247563,111.951826 C15.1379278,114.242539 15.8257336,116.694864 16.4630146,119.146915 C16.6860105,120.004931 16.8867939,120.801741 17.0621828,121.517026 C17.167548,121.946735 17.2411289,122.254189 17.2797364,122.419052 L17.3148615,122.569044 L17.2730274,122.717305 C17.2359095,122.848851 17.177035,123.099135 17.1173633,123.4372 C16.9543049,124.360993 16.9016056,125.314866 17.022971,126.190516 C17.0613671,126.467544 17.1168484,126.730591 17.190209,126.977734 C17.4472931,127.84382 18.1719759,128.799817 19.2213778,129.761203 C19.7110734,130.209826 20.2379992,130.629285 20.7649819,131.006603 C21.0801522,131.232263 21.3232347,131.39241 21.4574903,131.475102 L23.2776411,132.596189 L21.1399936,132.58043 C19.3230017,132.567034 17.803396,132.172916 16.1753237,130.960549 C13.5903685,129.035627 10.6673102,125.113023 6.37479095,118.610463 C6.13730062,118.250699 5.88673496,117.870628 5.6079604,117.447362 C5.58006636,117.40501 5.58006636,117.40501 5.55217368,117.362656 C5.35515097,117.063481 5.21743468,116.854251 4.88477783,116.348736 C4.55403327,115.846074 4.55403327,115.846074 4.22885771,115.351934 C3.70871071,114.561605 3.33739891,113.998133 2.9933414,113.477357 C2.12067047,112.156454 1.5211802,111.259137 1.1235663,110.68189 C-0.0498983714,108.978283 -0.590744509,107.802349 -0.590744499,106.700276 C-0.590744493,106.037393 -0.248499137,105.509078 0.287262201,105.109813 C0.444457901,104.992666 0.600168512,104.898443 0.743445104,104.824826 Z" id="Combined-Shape" stroke="#000000" stroke-width="1.19402985"></path>
                <polygon id="Path-4" points="16.433865 120.883516 17.905023 121.395223 19.3122176 128.239306 22.2545336 131.757292 21.3590461 133.100524 18.4167301 132.469353 14.5149632 127.471745"></polygon>
            </g>
        </g>
    </g>
</svg>