<svg xmlns="http://www.w3.org/2000/svg" xmlns:xlink="http://www.w3.org/1999/xlink" viewBox="0 0 564 585" preserveAspectRatio="xMidYMin slice">
  <defs>
    <filter id="a" width="126.1%" height="124.7%" x="-13%" y="-12.2%" filterUnits="objectBoundingBox">
      <feOffset dy="2" in="SourceAlpha" result="shadowOffsetOuter1"/>
      <feGaussianBlur in="shadowOffsetOuter1" result="shadowBlurOuter1" stdDeviation="12.5"/>
      <feColorMatrix in="shadowBlurOuter1" result="shadowMatrixOuter1" values="0 0 0 0 0.267697704 0 0 0 0 0.267697704 0 0 0 0 0.267697704 0 0 0 0.17261096 0"/>
      <feMerge>
        <feMergeNode in="shadowMatrixOuter1"/>
        <feMergeNode in="SourceGraphic"/>
      </feMerge>
    </filter>
    <filter id="b" width="106.6%" height="106%" x="-3.2%" y="-2.8%" filterUnits="objectBoundingBox">
      <feOffset dy="2" in="SourceAlpha" result="shadowOffsetOuter1"/>
      <feGaussianBlur in="shadowOffsetOuter1" result="shadowBlurOuter1" stdDeviation="2"/>
      <feColorMatrix in="shadowBlurOuter1" result="shadowMatrixOuter1" values="0 0 0 0 0 0 0 0 0 0 0 0 0 0 0 0 0 0 0.144389719 0"/>
      <feMerge>
        <feMergeNode in="shadowMatrixOuter1"/>
        <feMergeNode in="SourceGraphic"/>
      </feMerge>
    </filter>
    <ellipse id="c" cx="16.043" cy="18.91" rx="7.783" ry="10.496"/>
  </defs>
  <g fill="none" fill-rule="evenodd" filter="url(#a)" transform="rotate(4.5 -62.372 723.405)">
    <g stroke="#FFF" filter="url(#b)">
      <path fill="#FFF" stroke-width="4" d="M489.513 251.77l.12.168.375-.268-.495.1zm-2.203-3.088l3.222-2.311 10.307-2.101 2.463 12.126-10.304 2.1-3.875-.864-196.59 40.07.401 1.978-5.15 4.064-2.2-.232-47.307 33.806a5.517 5.517 0 0 1-1.744 2.3l-3.642 2.607a5.636 5.636 0 0 1-8.87-.404 5.651 5.651 0 0 1 2.275-8.427l3.84-2.744.087-.059a5.4 5.4 0 0 1 2.953-.85l39.045-27.9-14.669 2.99-1.817-8.95 12.1-2.466-34.014-7.554 1.973-8.917 47.158 10.474 1.319-.732 6.307 1.414.133.652 196.6-40.07z"/>
      <path stroke-linecap="square" stroke-width="5.911" d="M215.042 502.311L103.46 56.9"/>
      <path fill="#FFF" stroke-width="4" d="M174.197 146.161c3.82 7.283 13.75 20.128 13.75 20.128l2.505-1.064s-2.432-13.001-8.96-23.632c-19.65-31.995-25.788-36.634-37.889-49.49-12.1-12.856-14.527-15.337-30.422-31.791-15.195-15.73-16.88-33.657-13.331-43.85 1.233-3.542 3.19-8.07 3.19-8.07s-3.454 1.768-6.084 6.921c0 0-5.122 9.897-2.546 22.604 2.67 13.172 11.64 24.777 19.626 32.862 15.838 16.033 24.056 24.386 34.332 37.294 9.49 11.92 17.302 21.832 25.829 38.088zM244.036 375.027c.207-2.528.732-5.835 1.51-9.751.268-1.35.563-2.755.88-4.201a294.034 294.034 0 0 1 2.461-10.293l.392-1.492h5.873l.346 1.57.076.366c.057.284.121.615.19.99.194 1.062.388 2.265.569 3.585.881 6.435 1.14 13.106.397 19.382-.067.56-.14 1.113-.223 1.66-2.303 15.303-4.398 26.08-6.663 34.66-1.403 5.314-2.829 9.701-4.832 15.105-.538 1.453-3.306 8.716-4.145 10.99-2.607 7.059-4.267 11.52-5.912 15.878l-.152.403c-1.949 5.161-1.752 4.649-9.528 24.894-6.654 17.327-3.861 34.314 4.477 43.512a74.688 74.688 0 0 0 1.784 1.898 153.765 153.765 0 0 0 4.204 4.18l4.03 3.842-5.553-.4c-.654-.046-1.691-.248-3.008-.71-2.124-.746-4.308-1.96-6.43-3.738-.435-.36-1.148-1.025-2.046-1.986a39.373 39.373 0 0 1-4.313-5.561c-2.568-3.987-4.49-8.465-5.5-13.405-2.43-11.908-.129-25.312 5.327-39.056 10.297-25.942 13.114-33.687 16.963-47.542 5.6-20.157 7.568-29.4 8.826-44.78z"/>
      <path fill="#FFF" stroke-width="4" d="M222.502 205.737l7.9-3.27-1.26 1.313.484 1.45c.125.375.556 1.19 1.411 2.653a947.5 947.5 0 0 1 3.19 5.427c3.4 5.889 6.365 11.61 9.271 18.227.853 1.94 1.683 3.993 2.49 6.144 2.011 5.359 3.798 11.087 5.343 16.815.54 2.003 1.012 3.864 1.412 5.535a140.85 140.85 0 0 1 .773 3.414 103 103 0 0 1 .627 3.243c.233 1.32.432 2.604.585 3.823.404 3.202.475 5.699.077 7.405l-.03.112c-.04.138-.117.417-.218.814a43.66 43.66 0 0 0-.502 2.228c-.424 2.136-.69 4.259-.722 6.212-.018 1.07.036 2.058.166 2.947.117.792 1.014 1.807 2.511 2.792a17.32 17.32 0 0 0 2.109 1.173c.43.204.758.341.925.405l1.06.402 1.542 8.631-.382.642a14.558 14.558 0 0 0-.75 1.54c-.352.85-.596 1.675-.688 2.4a4.308 4.308 0 0 0-.034.783c.06 1.044.172 1.945.392 3.337l.118.739c.655 4.092.803 6.785.362 11.608-.24 2.626-.743 5.016-1.572 7.944-.073.257-.925 3.157-1.114 3.875-.304 1.159-.445 1.972-.445 2.592 0 .252.18.655.523 1.096.249.322.5.568.63.674l.686.564.042.887c.005.115.013.322.02.61.08 3.009-.038 6.502-.51 9.86-.048.338-.1.67-.153.997-1.146 6.901-3.774 14.363-7.975 23.693-.8 1.778-1.225 2.571-1.788 3.198-.624.695-1.261 1.012-2.223 1.252l-.541.128c-3.518.828-5.873-1.04-6.886-5.958-1.204-5.848-.9-16.707.278-25.731a573.958 573.958 0 0 1-.358-1.48c-.336-1.39-.67-2.798-.984-4.136l-.103-.443c-.91-3.908-1.366-6.044-1.374-6.744-.01-.749 1.882-6.388 1.795-6.109 1.326-4.265 2.552-9.157 3.721-15.337.058-.304.115-.61.172-.92 1.325-7.19.615-10.334-1.899-11.908-1.513-.947-3.008-1.125-4.28-.878-.154.03-.24.053-.249.056l-2.306.795-.743-5.485 8.307-22.67-2.563-4.666-6.67-.208c-.35.101-.71.162-1.097.158-1.523-.015-2.723-1.106-2.753-2.825l-.035-.668a171.16 171.16 0 0 1-.08-1.872 151.056 151.056 0 0 1-.118-6.01c.006-2.282.081-4.22.244-5.729.67-6.23-1.814-17.954-5.863-25.11-1.33-2.351-2.492-4.188-3.714-5.938-.368-.528-2.15-2.982-2.59-3.642a19.608 19.608 0 0 1-1.637-2.928 85.247 85.247 0 0 0-1.598-3.355l-.92-1.822 1.84-.882c.821-.394 1.643-.78 2.465-1.158l-.438-.044 6.694-2.667zm5.531 2.362l-.05-.086-1.11.65.04.072 1.176-.514a4.472 4.472 0 0 0-.056-.122zm-.09-.182a5.947 5.947 0 0 0-1.333-1.681l-.778.26c.162.488.43 1.057.883 1.883.41-.156.818-.31 1.227-.462zm9.149 90.391a9.525 9.525 0 0 0-.098.004l-.04.372.138-.376zm-8.347-72.696c1.23 2.586 3.49 8.618 4.682 12.319.027-.652 0-1.544-.103-2.574a40.496 40.496 0 0 0-.366-2.663 52.847 52.847 0 0 0-.446-2.325 12.67 12.67 0 0 0-.382-.758 14.305 14.305 0 0 0-1.38-2.1c-.632-.79-1.305-1.435-2.005-1.899zm5.133 13.786l.012.043-.013-.047zm6.205 3.12c-.203-.405-.59-.345-.671.221-.158 1.106-.472 2.365-.917 3.759a47.567 47.567 0 0 1-.95 2.671 66.201 66.201 0 0 1-1.8 4.203 1.448 1.448 0 0 0-.024.402c.092.027.242.04.333.032l5.543-2.233c.989-.406 1.169-.713.864-1.847l-2.378-7.207zm-4.35 11.318l.002.004a.1.1 0 0 0-.006-.014zm-.067-.083a.142.142 0 0 0 .009.004zm10.376 43.958a.566.566 0 0 0-.076-.043c-.027-.013-.036-.018-.024-.023l.036-.006.054-.008.01.08zm.264-.135l3.255-.623a11.824 11.824 0 0 1-.744-1.017c-.13-.197-.582-.92-.512-.81-.28-.442-.452-.664-.68-.871-.135-.123-.413-.096-.484.068-.03.07-.071.18-.118.322a16.11 16.11 0 0 0-.282 1 38.748 38.748 0 0 0-.43 1.906l-.005.025zm2.326 26.215c.035.003.092.006.177.006.593 0 2.258-.963 4.06-2.843.096-.101.46-.47.534-.548.32-.34.376-.484.376-1.308 0-1.154-.075-2.227-.23-3.416-.137-1.063-.85-5.19-.934-5.692.017.1.017.105-.018.078a.902.902 0 0 0-.429-.18c-.08-.009-.107-.002-.119.007-.081.061-.19.248-.276.655.03-.138-.918 4.404-1.15 5.445-.19.852-.367 1.598-.555 2.322a54.705 54.705 0 0 1-1.301 4.276c-.157.451-.2.934-.135 1.198zm-2.61 8.954c-.09.075-.186.152-.326.263-.144.115-.218.18-.283.246-.333.343-.706 1.096-1.273 2.902-.19.607-.216 1.612-.008 2.17.138.366.249.419 1.185.156.383-.107.772-.188 1.373-.295-.022.004.636-.111.82-.145.3-.055.549-.105.78-.158 1.224-.279 1.91-.636 2.229-1.132.983-1.53 1.471-3.172 2.12-6.71.246-1.342.153-1.439-.944-.928a16.41 16.41 0 0 0-.71.353c-.575.302-1.188.661-1.824 1.065a40.819 40.819 0 0 0-3.138 2.213zm5.854 20.65c-.207.558-.628 3.303-.9 6.428-.115 1.31-.2 2.61-.252 3.735.924-2.51 1.73-5.26 1.877-6.888.147-1.64.11-1.996-.311-3.022.001.004-.208-.173-.414-.254zm-1.166 13.428a.877.877 0 0 0-.004-.015zm.57-110.534l.432 1.874 5.165-1.248c-.017.003.077-.04.167-.114.195-.158.265-.35.125-.953-.112-.49-.235-.65-.37-.716a.666.666 0 0 0-.328-.044l-5.191 1.201zm5.182-1.2h-.001.004zm-7.235 12.059a92.908 92.908 0 0 1 1.03 3.997c.39 1.699.61 2.974.61 3.836 0 1.852-.627 4.873-1.733 8.889-.212.77-.44 1.569-.68 2.388a200.057 200.057 0 0 1-2.36 7.464l-.038.113-.052.108c-1.462 3.036-4.968 5.078-9.371 6.187-4.514 1.137-8.205 1.221-8.778-1.28-.563-2.456 2.634-10.213 6.027-16.281.311-.558 2.159-3.778 2.546-4.505.64-1.2.971-2.015 1.116-2.742a4.41 4.41 0 0 0 .086-.867c0-1.616-2.242-3.086-5.796-3.469l-1.234-.133-1.52-4.13 2.287-.462 12.054-2.432c2.197-.487 3.96.192 5.021 1.636.441.6.676 1.19.785 1.683zm-11.13-7.12a.38.38 0 0 0-.383.38c0 .208.17.379.382.379a.38.38 0 0 0 .382-.38.38.38 0 0 0-.382-.378z"/>
      <path fill="#FFF" stroke-width="4" d="M218.867 235.795l-.275-1.353.569-.727c.044-.057.072-.181.042-.331-.03-.15-.104-.252-.167-.287l-.808-.447-.275-1.354a3.08 3.08 0 0 1 2.404-3.633l56.014-11.417a3.08 3.08 0 0 1 3.633 2.406l.914 4.498a3.08 3.08 0 0 1-2.404 3.633L222.5 238.2a3.08 3.08 0 0 1-3.633-2.405zm8.875-3.953c-.122.06-.254.104-.393.132l.807-.164c-.14.028-.278.039-.414.032zm-1.084-.51a1.687 1.687 0 0 1-.187-.243l.33.524a1.786 1.786 0 0 1-.143-.28zm.55-2.103c.215-.174.473-.302.767-.362l-1.613.329c.294-.06.581-.043.847.033zm1.332 1.723c.002.103-.006.208-.023.314l.1-.612a1.69 1.69 0 0 1-.077.298zm3.166.082c-.122.06-.254.104-.394.132l.808-.164c-.14.028-.278.039-.414.032zm-1.085-.51a1.687 1.687 0 0 1-.186-.243l.33.524a1.786 1.786 0 0 1-.144-.28zm.551-2.103c.214-.174.473-.302.766-.362l-1.612.329c.293-.06.58-.043.846.033zm1.331 1.723c.002.103-.005.208-.023.314l.1-.612a1.69 1.69 0 0 1-.077.298zm3.166.082c-.122.06-.254.104-.393.133l.807-.165c-.14.028-.278.039-.414.032zm-1.085-.509a1.687 1.687 0 0 1-.186-.244l.33.524a1.786 1.786 0 0 1-.144-.28zm.552-2.103c.214-.175.472-.303.766-.363l-1.613.33c.294-.06.581-.044.847.033zm1.33 1.722c.002.103-.005.208-.022.314l.1-.612a1.69 1.69 0 0 1-.077.298zm3.167.082c-.122.06-.254.104-.394.133l.808-.165c-.14.029-.278.039-.414.032zm-1.085-.509a1.687 1.687 0 0 1-.186-.244l.33.524a1.786 1.786 0 0 1-.144-.28zm.551-2.103c.214-.175.473-.303.766-.362l-1.612.328c.293-.06.58-.043.846.034zm1.331 1.722c.002.103-.005.208-.023.314l.1-.611a1.69 1.69 0 0 1-.077.297zm3.166.083c-.122.059-.254.104-.394.132l.808-.165c-.14.029-.278.04-.414.033zm-1.085-.51a1.687 1.687 0 0 1-.186-.243l.33.524a1.786 1.786 0 0 1-.144-.28zm.552-2.103c.214-.175.472-.302.766-.362l-1.613.328c.294-.06.581-.043.847.034zm1.33 1.722c.002.103-.005.208-.022.314l.1-.611a1.69 1.69 0 0 1-.077.297zm3.167.083c-.122.059-.254.104-.394.132l.808-.164c-.14.028-.279.038-.414.032zm-1.085-.51a1.687 1.687 0 0 1-.186-.243l.33.524a1.786 1.786 0 0 1-.144-.28zm.551-2.103c.214-.174.473-.302.766-.362l-1.612.329c.293-.06.58-.044.846.033zm1.331 1.722c.002.103-.006.208-.023.314l.1-.611a1.69 1.69 0 0 1-.077.297zm3.166.083c-.122.06-.254.104-.394.132l.808-.164c-.14.028-.278.039-.414.032zm-1.085-.51a1.687 1.687 0 0 1-.186-.243l.33.524a1.786 1.786 0 0 1-.144-.28zm.552-2.103c.214-.174.472-.302.766-.362l-1.613.329c.294-.06.581-.043.847.033zm1.33 1.723c.002.103-.005.208-.022.314l.1-.612a1.69 1.69 0 0 1-.077.298zm3.167.082c-.123.06-.254.104-.394.132l.808-.164c-.14.028-.279.039-.414.032zm-1.085-.51a1.687 1.687 0 0 1-.186-.243l.33.524a1.786 1.786 0 0 1-.144-.28zm.551-2.103c.214-.174.473-.302.766-.362l-1.612.329c.293-.06.58-.043.846.033zm1.331 1.723c.002.103-.006.208-.023.314l.1-.612a1.69 1.69 0 0 1-.077.298zm3.166.082c-.122.06-.254.104-.394.133l.808-.165c-.14.028-.278.039-.414.032zm-1.085-.509a1.687 1.687 0 0 1-.186-.244l.33.524a1.786 1.786 0 0 1-.144-.28zm.552-2.103c.214-.175.472-.303.766-.363l-1.613.33c.293-.06.581-.044.847.033zm1.33 1.722c.002.103-.005.208-.022.314l.1-.612a1.69 1.69 0 0 1-.077.298zm3.167.082c-.123.06-.254.104-.394.133l.808-.165c-.14.029-.279.039-.414.032zm-1.085-.509a1.687 1.687 0 0 1-.186-.244l.33.524a1.786 1.786 0 0 1-.144-.28zm.551-2.103c.214-.175.473-.303.766-.362l-1.612.328c.293-.06.58-.043.846.034zm1.331 1.722c.002.103-.006.208-.023.314l.1-.611a1.69 1.69 0 0 1-.077.297zm3.166.083c-.122.059-.254.104-.394.132l.808-.165c-.14.029-.278.04-.414.033zm-1.085-.51a1.687 1.687 0 0 1-.186-.243l.33.524a1.786 1.786 0 0 1-.144-.28zm.552-2.103c.214-.175.472-.302.766-.362l-1.613.328c.293-.06.581-.043.847.034zm1.33 1.722c.002.103-.005.208-.022.314l.1-.611a1.69 1.69 0 0 1-.077.297zm3.167.083c-.123.059-.255.104-.394.132l.808-.164c-.14.028-.279.038-.414.032zm-1.085-.51a1.687 1.687 0 0 1-.186-.243l.33.524a1.786 1.786 0 0 1-.144-.28zm.551-2.103c.214-.174.473-.302.766-.362l-1.612.329c.293-.06.58-.044.846.033zm1.331 1.722c.002.103-.006.208-.023.314l.1-.611a1.69 1.69 0 0 1-.077.297zm3.166.083c-.122.06-.254.104-.394.132l.808-.164c-.14.028-.278.038-.414.032zm-1.085-.51a1.687 1.687 0 0 1-.186-.243l.33.524a1.786 1.786 0 0 1-.144-.28zm.551-2.103c.215-.174.473-.302.767-.362l-1.613.329c.293-.06.581-.043.846.033zm1.332 1.723c.001.103-.006.208-.023.314l.099-.612a1.69 1.69 0 0 1-.076.298zm-51.924 13.362a1.764 1.764 0 0 1-.765.362l1.612-.329c-.293.06-.581.043-.847-.033zm-1.33-1.722a1.785 1.785 0 0 1 .023-.315l-.1.612c.017-.103.043-.203.077-.297zm.798-.891c.122-.06.254-.104.393-.132l-.808.164c.14-.028.279-.039.415-.032zm1.084.509c.068.074.13.155.186.244l-.33-.524c.058.09.105.185.144.28zm-.951.134c-.122.059-.254.104-.394.132l.808-.164c-.14.028-.278.038-.414.032zm-1.085-.51a1.687 1.687 0 0 1-.186-.243l.33.524a1.786 1.786 0 0 1-.144-.28zm.551-2.103c.215-.174.473-.302.766-.362l-1.612.329c.293-.06.581-.044.846.033zm1.331 1.722c.002.104-.005.208-.023.314l.1-.611a1.69 1.69 0 0 1-.077.297zm3.566 2.053a1.764 1.764 0 0 1-.766.362l1.613-.329c-.294.06-.582.044-.847-.033zm-1.33-1.722a1.785 1.785 0 0 1 .022-.314l-.1.611c.018-.103.043-.203.077-.297zm.797-.89c.122-.06.254-.105.394-.133l-.808.164c.14-.028.278-.038.414-.032zm1.085.508c.068.074.13.156.186.244l-.33-.524c.057.091.105.185.144.28zm3.411 1.296a1.764 1.764 0 0 1-.765.362l1.612-.328c-.293.06-.581.043-.847-.034zm-1.33-1.722a1.785 1.785 0 0 1 .023-.314l-.1.611c.017-.103.043-.202.077-.297zm.798-.89c.122-.06.254-.105.393-.133l-.808.165c.14-.029.279-.04.415-.033zm1.084.508c.068.074.13.156.186.244l-.33-.524c.057.091.105.185.144.28zm3.412 1.296a1.764 1.764 0 0 1-.766.362l1.613-.328c-.294.06-.582.043-.847-.034zm-1.33-1.722a1.785 1.785 0 0 1 .022-.314l-.1.611c.018-.103.043-.202.077-.297zm.797-.89c.122-.06.254-.104.394-.133l-.808.165c.14-.029.278-.04.414-.033zm1.084.509c.069.074.131.155.187.243l-.33-.523c.057.09.105.184.143.28zm3.412 1.295a1.764 1.764 0 0 1-.765.363l1.612-.33c-.293.06-.581.044-.847-.033zm-1.33-1.722a1.785 1.785 0 0 1 .023-.314l-.1.611c.017-.103.043-.202.077-.297zm.798-.89c.122-.06.254-.104.393-.133l-.808.165c.14-.029.279-.039.415-.032zm1.084.509c.068.074.13.155.186.244l-.33-.524c.057.09.105.184.144.28zm3.412 1.296a1.764 1.764 0 0 1-.766.362l1.613-.329c-.294.06-.582.043-.847-.033zm-1.33-1.723a1.785 1.785 0 0 1 .022-.314l-.1.612c.018-.104.043-.203.077-.298zm.797-.89c.122-.06.254-.104.393-.133l-.807.165c.14-.028.278-.039.414-.032zm1.084.509c.069.074.13.155.187.244l-.33-.524c.057.09.105.184.143.28zm3.412 1.296a1.764 1.764 0 0 1-.765.362l1.612-.329c-.293.06-.581.043-.847-.033zm-1.33-1.722a1.785 1.785 0 0 1 .023-.315l-.1.612c.017-.103.043-.203.077-.297zm.797-.891c.123-.06.254-.104.394-.132l-.808.164c.14-.028.279-.039.414-.032zm1.085.509c.068.074.13.155.186.244l-.33-.524c.057.09.105.185.144.28zm3.412 1.296a1.764 1.764 0 0 1-.766.362l1.613-.329c-.294.06-.582.044-.847-.033zm-1.331-1.722a1.785 1.785 0 0 1 .023-.314l-.1.611c.017-.103.043-.203.077-.297zm.798-.89c.122-.06.254-.105.393-.133l-.807.164c.14-.028.278-.038.414-.032zm1.084.508c.068.074.13.156.187.244l-.33-.524c.057.091.105.185.143.28zm3.412 1.296a1.764 1.764 0 0 1-.765.362l1.612-.329c-.293.06-.581.044-.847-.033zm-1.33-1.722a1.785 1.785 0 0 1 .023-.314l-.1.611c.017-.103.043-.202.076-.297zm.797-.89c.123-.06.254-.105.394-.133l-.808.165c.14-.029.279-.04.414-.033zm1.085.508c.068.074.13.156.186.244l-.33-.524c.057.091.105.185.144.28zm3.412 1.296a1.764 1.764 0 0 1-.766.362l1.613-.328c-.294.06-.582.043-.847-.034zm-1.331-1.722a1.785 1.785 0 0 1 .023-.314l-.1.611c.017-.103.043-.202.077-.297zm.798-.89c.122-.06.254-.104.393-.133l-.807.165c.14-.029.278-.04.414-.033zm1.084.508c.068.074.13.156.187.244l-.33-.523c.057.09.105.184.143.28zm3.412 1.296a1.764 1.764 0 0 1-.766.363l1.613-.33c-.293.06-.581.044-.847-.033zm-1.33-1.722a1.785 1.785 0 0 1 .023-.314l-.1.611c.017-.103.043-.202.076-.297zm.797-.89c.123-.06.254-.104.394-.133l-.808.165c.14-.029.279-.039.414-.032zm1.085.509c.068.074.13.155.186.244l-.33-.524c.057.09.105.184.144.28zm3.412 1.296a1.764 1.764 0 0 1-.766.362l1.613-.329c-.294.06-.582.043-.847-.033zm-1.331-1.723a1.785 1.785 0 0 1 .023-.314l-.1.612c.017-.104.043-.203.077-.298zm.798-.89c.122-.06.254-.104.393-.133l-.807.165c.14-.028.278-.039.414-.032zm1.084.509c.068.074.13.155.187.244l-.33-.524c.057.09.104.184.143.28zm3.412 1.296a1.764 1.764 0 0 1-.766.362l1.613-.329c-.294.06-.581.043-.847-.033zm-1.33-1.722a1.785 1.785 0 0 1 .023-.315l-.1.612c.017-.103.043-.203.076-.297zm.797-.891c.123-.06.254-.104.394-.132l-.808.164c.14-.028.279-.039.414-.032zm1.085.509c.068.074.13.155.186.244l-.33-.524c.057.09.105.185.144.28zm18.59-15.121l.08-.016a4.427 4.427 0 0 1 5.22 3.46 4.431 4.431 0 0 1-3.454 5.224l-.082.017 5.66 27.87-.205.043.307 1.511-6.562 1.338-.497-2.449-3.446-2.284-6.937-34.16 1.333-2.019-.878-4.325 8.675-1.769 1.28 6.303-.719.146.226 1.11zm-53.255 13.654c.962.486 1.651 1.404 1.935 2.649.416 1.823-.3 3.305-1.66 4.092a4.03 4.03 0 0 1-1.452.513l-.569.116-.541.794-.418.085.001.006-4.357.888-.808-.519-.58.118c-.077.02-.167.04-.268.058a3.98 3.98 0 0 1-1.94-.112c-1.268-.406-2.173-1.457-2.443-2.971-.222-1.245.046-2.35.73-3.173l-.515-2.533c-.517-2.547 2.112-4.4 5.412-5.072 3.302-.673 6.446.004 6.964 2.553l.509 2.508zm38.077 2.763a1.764 1.764 0 0 1-.766.362l1.613-.329c-.294.06-.582.044-.847-.033zm-1.331-1.722a1.785 1.785 0 0 1 .023-.314l-.1.611c.017-.103.043-.203.077-.297zm.798-.89c.122-.06.254-.105.393-.133l-.807.164c.14-.028.278-.038.414-.032zm1.084.508c.068.074.13.156.187.244l-.33-.524c.057.091.104.185.143.28zM232.787 239.3l-.262.053c-.429.332-.787.535-1.338.66a3.682 3.682 0 0 1-.262.06 3.755 3.755 0 0 1-2.07-.154c-1.15-.43-1.972-1.414-2.289-2.802-.415-1.823.3-3.306 1.66-4.093a4.03 4.03 0 0 1 1.452-.513l.569-.116.541-.793 4.36-.889v.006l.417-.084.808.518.58-.118c.077-.02.167-.039.268-.057a3.98 3.98 0 0 1 1.939.112c1.269.405 2.174 1.457 2.444 2.97.316 1.77-.365 3.196-1.658 3.96a3.793 3.793 0 0 1-1.48.515c-.546.096-.957.05-1.472-.086l-4.206.857-.001-.006zm41.466-23.449l9.468-1.93 2.463 12.126-9.468 1.93-2.463-12.126zm8.293.187l1.542-.315-.086-.42-.925-.612-.616.93.085.417zm1.838 9.05l.086.42.925.613.615-.93-.084-.417-1.542.314zm-5.012-12.486l6.298-1.283 3.43 16.89-6.298 1.284-3.43-16.89z"/>
      <path fill="#FFF" stroke-width="4" d="M62.034 165.825c18.9-18.074 44.983-34.035 92.8-55.788 15.782-7.179 31.925-12.16 51.156-14.005 27.374-2.627 55.355 2.211 83.4 16.542 19.723 10.078 35.238 24.283 47.022 41.544 8.644 12.662 14.791 26.219 18.866 39.776 1.427 4.748 2.494 9.16 3.253 13.126a89.26 89.26 0 0 1 .635 3.705c.096.652.154 1.109.182 1.356l.395 3.607-3.261-1.592c-38.745-18.915-72.927-22.671-119.484-9.176-20.508 5.945-40.5 17.396-60.245 33.132-7.922 6.313-15.374 12.96-23.133 20.434-3.506 3.377-13.176 13.017-14.617 14.378-3.5 3.303-7.052 6.3-10.656 8.971 13.527 8.702 27.453 18.574 39.26 28.502.152-.894.34-1.854.568-2.874a63.865 63.865 0 0 1 3.98-12.024c2.71-6.097 5.26-7.97 11.609-8.651 5.784-.62 11.567-1.726 17.184-3.18a124.438 124.438 0 0 0 8.641-2.565 88.142 88.142 0 0 0 2.378-.84c.404-.149.676-.254.849-.322 18.403-6.904 28.16-14.62 38.136-29.084.103-.149.206-.299.308-.45 3.852-5.659 6.5-10.674 10.351-18.9 1.87-3.991 2.35-4.983 3.065-6.215.508-.875.963-1.513 1.45-1.976.869-.825 1.97-1.195 3.123-.658 4.747 2.209 5.746 8.369 4.443 17.189-.4 2.708-1.014 5.576-1.785 8.509a105.309 105.309 0 0 1-2.077 6.92c-.081.238-.144.416-.184.53-.063.208-.176.557-.342 1.041-.054.16-.112.326-.172.497 5.186-5.59 8.07-7.792 10.353-5.732 4.492 4.052 3.633 10.832-.791 19.774-1.197 2.419-2.638 4.955-4.336 7.69-1.716 2.763-6.675 10.174-6.473 9.86a34.233 34.233 0 0 1-2.843 3.784 40.443 40.443 0 0 1-2.742 2.88l6.532.544-1.077 2.544a94.443 94.443 0 0 1-1.032 2.285 140.198 140.198 0 0 1-2.957 5.93c-3.232 6.127-6.973 12.256-11.184 17.985-3.96 5.389-8.144 10.152-12.542 14.121-7.477 6.747-16.318 11.917-25.746 15.728a96.747 96.747 0 0 1-9.459 3.276c-.698.201-1.354.38-1.964.539 1.927 6.66 2.768 13.272 2.768 20.166 0 10.353-.96 17.52-4.207 25.833-3.896 9.977-10.88 20.054-21.863 30.82 8.36 2.782 14.547 4.945 18.854 6.612 2.734 1.058 4.7 1.913 5.922 2.59.816.453 1.366.848 1.745 1.35 1.019 1.351.393 3.04-1.118 3.57a53.43 53.43 0 0 1-5.817 1.674l-2.272 1.57c-8.46 5.845-17.324 8.071-26.316 7.236-.488-.045-.975-.1-1.46-.162l.053 1.115c-10.052 1.482-19.232.768-27.49-1.64l-1.125.359c-5.568 1.778-12.165 1.222-18.518-.793l-1.063.164c-.253.038-.695.092-1.303.145-5.25.453-11.27-.052-17.084-2.277-2.368-.906-4.76-2.053-7.148-3.39l-.874.099a6.312 6.312 0 0 1-.32.025c-1.214.07-2.828-.022-4.764-.397-2.841-.55-5.84-1.62-8.91-3.325-12.209-6.78-19.547-12.675-23.296-18.4-3.106-4.742-3.72-8.839-3.037-14.85.062-.547.112-.943.243-1.968.155-1.206.226-1.788.296-2.479l.019-.136c2.871-16.723 8.546-33.635 16.585-44.758a85.073 85.073 0 0 1 2.666-3.504l-.068-.48c-.707-5.004-2-10.227-4.028-14.812a23.767 23.767 0 0 0-2.03-3.645c-1.133-1.692-2.56-3.459-4.714-5.883-1.095-1.23-5.91-6.494-7.09-7.805-7.511-8.34-14.28-16.607-22.417-27.807-21.774-29.97-27.494-42.785-26.425-58.636.783-11.606 3.708-21.32 8.758-30.186 4.072-7.148 9.036-13.203 17.23-21.663 1.417-1.464 6.794-6.93 8.011-8.184.11-.113 1.852-1.9 2.396-2.463a176.441 176.441 0 0 0 2.578-2.713c1.549-1.67 2.866-3.179 3.999-4.604 1.512-1.902 2.654-3.604 3.393-5.094 1.103-2.223 1.382-4.06.986-4.907-.258-.551-1.103-.766-3.094-.166l-13.311 4.01 11.64-7.6c2.029-1.324 5.161-1.438 7.732-.233 2.067.969 3.615 2.663 4.45 4.955zM2.524 351.61c-.745-1.73-1.112-4.054-.89-6.283.373-3.733 2.273-6.977 5.799-9.06 6.077-3.59 12.119-1.007 16.728 4.51 1.24-1.087 2.842-1.589 4.667-1.114 3.484.906 5.816 2.812 8.115 6.836.844 1.478 1.706 3.179 2.586 5.095 2.79 6.073 5.728 14.22 8.748 23.942 2.387 7.684 4.689 15.91 6.821 24.135a597.972 597.972 0 0 1 2.545 10.18l.189.796.117.501-.14.496a16.43 16.43 0 0 0-.155.618c-.124.53-.249 1.133-.366 1.797-.546 3.1-.722 6.3-.316 9.238.129.93.315 1.813.56 2.642.86 2.906 3.286 6.113 6.799 9.338a55.682 55.682 0 0 0 5.165 4.178c.617.443 1.189.835 1.7 1.173.302.2.513.334.618.398l6.082 3.755-7.148-.053c-6.082-.045-11.168-1.367-16.618-5.434-8.65-6.457-18.433-19.615-32.799-41.428l-2.566-3.901-.187-.284a10714.032 10714.032 0 0 1-4.428-6.745 4250.42 4250.42 0 0 0-4.135-6.288c-2.92-4.431-4.927-7.441-6.258-9.378-3.926-5.713-5.736-9.657-5.736-13.352 0-2.222 1.145-3.993 2.937-5.332.54-.404 1.076-.726 1.567-.976z"/>
    </g>
    <path fill="#2D2D2D" d="M238.11 278.865l46.862 10.389-1.082 4.881-46.862-10.389z"/>
    <path fill="#000" d="M169 315.526s.367-8.25 4.924-18.464c2.48-5.557 4.49-6.898 10.055-7.492 16.44-1.756 29.719-7.04 29.719-7.04 20.213-7.555 29.874-16.252 39.315-29.89 9.847-14.226 13.678-28.619 15.902-27.588 8.958 4.154-.663 30.78-.663 30.78s-1.687 5.614-6.36 15.064c3-4.942 14.89-18.885 16.822-17.15 8.03 7.218-7.305 27.563-12.014 34.838-3.701 5.72-8.954 9.36-8.954 9.36l8.661.719s-10.386 24.432-27.376 39.71C222.04 353.651 200.419 358 200.419 358L169 315.526z"/>
    <path fill="#2D2D2D" d="M287.819 290.938l200.791-40.852 1.06 5.213-200.79 40.852z"/>
    <path fill="#D8D8D8" d="M491.462 247.791l7.968-1.62 1.73 8.505-7.968 1.621-3.483-.82-1.135-5.564z"/>
    <path fill="#CECECE" d="M279.24 290.92l4.675-.95.35 1.721-4.326 2.659z"/>
    <path fill="#2D2D2D" d="M257.009 297.206l25.497-5.188 1.061 5.214-25.498 5.187z"/>
    <path fill="#C7C7C7" d="M285.04 295.502l-.14-.697-4.675.951 1.107 5.443 4.981.573v.001l.001-.001h.003l3.55-2.873-1.155-5.676-3.671 2.279z"/>
    <path fill="#D8D8D8" d="M285.214 296.33l-4.99-.572 2.299-1.69-.51-2.5-2.774-.657 4.37-2.475 4.335 1.026.862 4.224-3.592 2.644z"/>
    <path fill="#FFF" d="M121.373 279.562s37.087 22.478 58.17 43.782c21.08 21.304 25.243 40.643 25.243 55.783s-1.602 33.176-28.648 58.267c-27.046 25.09-73.083-20.315-73.083-20.315s-21.324-46.975-21.324-51.14c0-4.166 3.691-21.184 3.691-21.184L37.22 291.943l-16.11-22.38 6.774-16.495 93.489 26.494z"/>
    <path fill="#FF1611" d="M119.982 382.405s7.323 9.02 20.166 15.2c12.843 6.179 32.034 11.239 50.655 2.72 9.606-4.395 11.006-9.991 11.006-9.991s-1.916 8.942-11.006 12.993c-15.416 6.868-45.208 5.65-65.958-13.314-3.414-3.12-4.863-7.608-4.863-7.608zM100.69 349.313s2.091-.442 8.69 3.794c6.599 4.236 5.707 3.681 13.682 8.496 7.976 4.814 17.517 8.887 32.491 10.314 14.974 1.427 26.491-.394 31.99-5.68 8.804-8.462 7.547-15.48 7.547-15.48s1.668 9.605-5.353 17.118c-5.585 5.977-16.48 7.97-26.6 7.47-10.12-.499-21.07-1.275-32.611-6.545-11.542-5.271-18.118-10.833-22.873-15.16-4.754-4.327-6.962-4.327-6.962-4.327z"/>
    <path stroke="#E5E5E5" stroke-linecap="square" stroke-width="1.612" d="M216.377 506.962L102.291 51.51"/>
    <path stroke="#FF1611" stroke-linecap="square" stroke-width="1.612" d="M164.38 299.294l-9.41-37.269"/>
    <path fill="#EAEAEA" d="M174.473 146.343c3.815 7.293 13.703 20.172 13.703 20.172l2.474-1.05s-2.47-12.999-8.982-23.65c-19.599-32.055-25.694-36.72-37.73-49.62-12.035-12.901-14.448-15.391-30.256-31.905-15.111-15.787-16.866-33.701-13.405-43.866 1.203-3.533 3.117-8.046 3.117-8.046s-3.409 1.75-5.986 6.884c0 0-5.019 9.861-2.408 22.566 2.707 13.17 11.637 24.807 19.58 32.922 15.749 16.092 23.92 24.476 34.151 37.42 9.449 11.954 17.226 21.893 25.742 38.173z"/>
    <path fill="#000" d="M100.816 14.9c1.162-3.183 2.578-6.522 2.578-6.522s-3.409 1.75-5.986 6.884c0 0-.656 1.29-1.37 3.536 0 0 4.59-3.38 4.778-3.898zM174.473 146.343c3.815 7.293 13.703 20.172 13.703 20.172l2.474-1.05s-.817-4.303-2.752-9.987c-1.428-4.194-9.31-16.572-12.701-20.92-18.574-23.815-31.32-37.282-64.49-70.887C94.01 46.755 95.023 22.746 95.023 22.746s-1.645 6.07-.023 15.082c2.27 12.614 11.637 24.807 19.58 32.922 15.749 16.092 23.92 24.476 34.151 37.42 9.449 11.954 17.226 21.893 25.742 38.173z"/>
    <g>
      <path fill="#EAEAEA" d="M246.794 375.04c.662-8.203 4.732-23.922 4.732-23.922h2.688s2.805 12.93.972 25.279c-5.516 37.165-9.304 43.84-15.342 60.418-6.038 16.578-7.287 19.813-15.385 41.19-7.742 20.437-2.357 37.613 4.8 45.617 2.488 2.782 6.013 6.189 6.013 6.189s-3.821-.279-8.2-3.998c0 0-8.472-7.116-11.033-19.832-2.655-13.18 1.019-27.381 5.159-37.954 8.21-20.967 12.456-31.878 16.816-47.79 4.026-14.695 7.302-26.883 8.78-45.196z"/>
      <path fill="#000" d="M230.351 524.814a159.325 159.325 0 0 0 4.921 4.997s-3.821-.279-8.2-3.998c0 0-1.107-.93-2.643-2.72 0 0 5.546 1.319 5.922 1.721zM246.794 375.04c.662-8.203 4.732-23.922 4.732-23.922h2.688s.928 4.28 1.368 10.268c.324 4.419-2.094 18.893-3.517 24.22-7.793 29.179-14.263 46.556-31.666 90.45-8.76 22.095 1.554 43.8 1.554 43.8s-3.886-4.945-5.914-13.875c-2.84-12.498 1.019-27.381 5.159-37.954 8.21-20.967 12.456-31.878 16.816-47.79 4.026-14.695 7.302-26.883 8.78-45.196z"/>
    </g>
    <g>
      <path fill="#2D2D2D" d="M249.781 255.1l7.297-1.684s2.436-.563 3.09 2.27c.654 2.832-1.766 3.466-1.766 3.466l-7.28 1.756-1.341-5.807z"/>
      <path fill="#FF1611" d="M215.01 211.584a157.083 157.083 0 0 1 7.832-3.459c-1.857 1.912-3.228 7.419-1.414 9.618.936 1.136 3.369.863 5.884 1.697 1.564.52 2.765 1.956 4.219 1.281 1.483-.688.331-2.978.331-2.978l-5.063-8.553s-.732-1.653-2.14-1.793a144.04 144.04 0 0 1 3.635-1.375c.829 2.457 7.36 11.281 14.154 26.554 6.125 13.769 9.76 30.32 9.76 30.32s2.557 10.885 1.603 14.928c0 0-2.205 7.383-1.358 13.093.53 3.574 6.92 5.967 6.92 5.967l1.23 6.8s-1.935 3.203-1.778 5.88c.274 4.68 1.672 6.99.89 15.43-.616 6.654-3.188 11.45-3.188 14.635 0 1.774 1.913 3.324 1.913 3.324s.272 5.718-.629 11.077c-1.284 7.64-4.548 15.813-7.945 23.264-1.44 3.158-1.63 3.089-3.237 3.462-1.928.449-3.614 0-4.537-4.426-1.362-6.533-.59-18.54.356-25.51 0 0-2.881-11.63-2.895-12.754-.015-1.123 2.895-6.777 5.743-22.04 1.558-8.356.367-12.017-2.848-14.006-3.315-2.05-6.339-1.02-6.339-1.02l-.354-2.584 8.58-23.124-3.605-6.482-8.303-.256s-1.572.694-1.572-.725c0 0-.531-9.164 0-14.038.635-5.829-1.452-18.088-6.204-26.383-4.334-7.564-6.322-8.747-7.98-12.38a87.197 87.197 0 0 0-1.662-3.444zm12.242 14.628c1.36 2.558 4.475 11.027 5.345 14.034.201.694 1.708 2.25 3.05.043 1.33-2.188-.556-10.314-.556-10.314s-2.018-4.824-5.824-6.457c-1.806-.774-2.918.997-2.015 2.694zm15.482 15.843c-.936-2.195-4.19-2.094-4.588.665-.585 4.066-3.653 10.304-3.653 10.304-.692 2.995 1.852 3.285 2.867 2.995l5.786-2.302c1.712-.693 2.72-1.887 2.053-4.286l-2.465-7.376zm3.41 51.877c-.444 1.007-.974 3.648-.974 3.648-.337 1.004 0 2.722 1.981 2.458l4.014-.758c.852-.287 2.087-1.7.852-3.2-.946-1.148-1.225-2.068-2.155-2.9-.891-.8-2.949-.993-3.718.752zm4.579 16.659c-1.142 5.328-1.537 7.703-2.986 11.836-.534 1.524-.497 3.87 1.962 3.87 1.024 0 3.113-.918 5.59-3.47.851-.88 1.488-1.278 1.488-3.249 0-3.327-.595-5.683-1.215-9.493-.274-1.683-4.063-3.117-4.84.506zm-5.131 21.114c-.855.701-1.472.915-2.571 4.38-.505 1.592-.648 6.062 3.68 4.863 1.796-.497 5.072-.474 6.443-2.581 1.37-2.104 1.898-4.522 2.442-7.452.46-2.47-.767-4.511-3.813-3.111-2.927 1.345-6.181 3.901-6.181 3.901zm5.53 21.136c-.98 1.566-1.848 13.176-1.482 14.998.231 1.156 1.713 2.076 2.44.543.91-1.919 3.192-7.635 3.492-10.946.167-1.83.136-2.54-.459-3.971-.463-1.115-2.835-2.473-3.991-.624z"/>
      <path fill="#7A512C" d="M232.68 269.336l-.29-.779 12.278-2.446c2.998-.656 3.483 1.85 3.483 1.85s1.608 5.544 1.608 7.375c0 4.454-4.738 18.145-4.738 18.145-2.605 5.344-14.339 6.555-14.62 5.344-.456-1.97 3.377-10.42 5.913-14.901 2.537-4.482 4.065-6.557 4.065-9.116 0-3.171-3.64-5.04-7.699-5.472z"/>
      <path fill="#2D2D2D" d="M238.821 262.347c.908 0 1.643-.728 1.643-1.626 0-.897-.735-1.625-1.643-1.625-.907 0-1.642.728-1.642 1.625 0 .898.735 1.626 1.642 1.626z"/>
    </g>
    <g transform="rotate(-35.5 638.53 -181.078)">
      <path fill="#2D2D2D" d="M71.473 1.258c1.399.02 2.526 1.075 2.526 2.375 0 1.299-1.127 2.355-2.526 2.374H8.641v-4.75h62.832z"/>
      <path fill="#D8D8D8" d="M9.66.309c1.826.08 3.28 1.503 3.28 3.246s-1.454 3.166-3.28 3.247v.003H3.757v-6.5H9.66V.31z"/>
      <ellipse cx="3.831" cy="3.58" fill="#C7C7C7" rx="3.646" ry="3.375"/>
    </g>
    <g>
      <path fill="#2D2D2D" d="M221.114 235.325c.398-.511.576-1.233.425-1.975-.15-.742-.597-1.337-1.163-1.652l-.094-.463a1.076 1.076 0 0 1 .845-1.273l56.124-11.418a1.085 1.085 0 0 1 1.276.84l.927 4.555a1.076 1.076 0 0 1-.846 1.272l-56.124 11.419a1.085 1.085 0 0 1-1.276-.841l-.094-.464zm5.913-4.639l-.099.616c-.023.143.075.242.22.213l1.616-.33c.147-.03.198-.155.119-.281l-.332-.528a.418.418 0 0 0-.401-.176l-.822.167a.424.424 0 0 0-.3.319zm3.971-.808l-.098.616c-.023.143.074.242.22.213l1.615-.33c.148-.029.198-.155.12-.28l-.332-.53a.418.418 0 0 0-.402-.175l-.822.167a.424.424 0 0 0-.3.319zm3.972-.808l-.1.616c-.022.143.076.242.22.213l1.616-.329c.148-.03.199-.156.12-.282l-.332-.528a.418.418 0 0 0-.401-.176l-.823.167a.424.424 0 0 0-.3.32zm3.971-.808l-.099.616c-.023.143.075.242.22.213l1.616-.329c.147-.03.198-.156.119-.282l-.332-.528a.418.418 0 0 0-.401-.176l-.822.167a.424.424 0 0 0-.301.32zm3.971-.808l-.099.616c-.023.143.075.242.22.213l1.616-.329c.147-.03.198-.156.119-.282l-.332-.528a.418.418 0 0 0-.4-.176l-.823.167a.424.424 0 0 0-.3.32zm3.972-.808l-.1.616c-.022.143.075.242.22.213l1.616-.329c.148-.03.199-.156.12-.282l-.332-.528a.418.418 0 0 0-.402-.176l-.822.167a.424.424 0 0 0-.3.32zm3.97-.808l-.098.616c-.023.143.075.242.22.213l1.616-.329c.147-.03.198-.156.119-.282l-.332-.528a.418.418 0 0 0-.401-.176l-.822.167a.424.424 0 0 0-.301.32zm3.972-.808l-.099.616c-.023.143.075.242.22.213l1.616-.329c.147-.03.198-.156.119-.282l-.332-.528a.418.418 0 0 0-.401-.176l-.822.167a.424.424 0 0 0-.3.32zm3.971-.808l-.098.616c-.024.143.074.242.22.213l1.615-.329c.147-.03.198-.156.12-.282l-.332-.528a.418.418 0 0 0-.402-.176l-.822.167a.424.424 0 0 0-.3.32zm3.972-.808l-.1.616c-.022.143.076.242.22.213l1.616-.329c.148-.03.199-.155.12-.282l-.332-.528a.418.418 0 0 0-.402-.176l-.822.167a.424.424 0 0 0-.3.32zm3.97-.808l-.098.616c-.023.144.075.242.22.213l1.616-.329c.147-.03.198-.155.119-.282l-.332-.528a.418.418 0 0 0-.401-.176l-.822.168a.424.424 0 0 0-.301.318zm3.972-.808l-.099.616c-.023.144.075.243.22.213l1.616-.329c.147-.03.198-.155.119-.282l-.332-.528a.418.418 0 0 0-.401-.176l-.822.168a.424.424 0 0 0-.3.318zm3.971-.808l-.098.616c-.023.144.074.243.22.213l1.615-.329c.148-.03.198-.155.12-.282l-.332-.528a.418.418 0 0 0-.402-.176l-.822.168a.424.424 0 0 0-.3.318zm-51.076 13.21c.08.126.267.203.402.175l.822-.167a.418.418 0 0 0 .3-.319l.1-.615c.023-.148-.073-.243-.22-.213l-1.616.328c-.145.03-.196.16-.12.282l.332.528zm-.55-2.706l-.099.616c-.023.143.075.242.22.213l1.616-.33c.147-.03.198-.155.119-.281l-.332-.528a.418.418 0 0 0-.401-.176l-.822.167a.424.424 0 0 0-.301.319zm4.522 1.897c.079.127.267.204.401.176l.822-.167a.418.418 0 0 0 .3-.319l.1-.615c.023-.147-.073-.243-.22-.213l-1.616.328c-.145.03-.196.16-.119.282l.332.528zm3.97-.808c.08.127.268.204.402.176l.822-.167a.418.418 0 0 0 .301-.319l.099-.615c.024-.147-.072-.243-.22-.213l-1.616.328c-.145.03-.196.16-.119.282l.332.528zm3.972-.808c.08.127.267.204.402.176l.822-.167a.418.418 0 0 0 .3-.319l.1-.615c.023-.147-.073-.243-.22-.213l-1.616.328c-.145.03-.197.16-.12.282l.332.528zm3.971-.807c.08.126.267.203.402.176l.822-.168a.418.418 0 0 0 .3-.319l.1-.615c.023-.147-.073-.243-.22-.213l-1.616.329c-.145.029-.196.158-.12.281l.332.529zm3.972-.808c.079.126.267.203.401.176l.822-.168a.418.418 0 0 0 .3-.319l.1-.615c.023-.147-.073-.243-.22-.213l-1.616.329c-.145.029-.196.158-.119.281l.332.529zm3.971-.808c.08.126.267.203.401.176l.822-.168a.418.418 0 0 0 .301-.319l.099-.615c.024-.147-.072-.243-.22-.213l-1.616.329c-.145.03-.196.158-.119.281l.332.529zm3.971-.808c.08.126.267.203.402.176l.822-.168a.418.418 0 0 0 .3-.318l.1-.616c.023-.147-.073-.243-.22-.213l-1.616.329c-.145.03-.197.158-.12.281l.332.529zm3.972-.808c.079.126.266.203.4.176l.823-.168a.418.418 0 0 0 .3-.318l.1-.616c.023-.147-.073-.243-.22-.213l-1.616.329c-.145.03-.196.158-.119.282l.332.528zm3.97-.808c.08.126.268.203.402.176l.822-.168a.418.418 0 0 0 .301-.318l.099-.616c.023-.147-.072-.243-.22-.213l-1.616.329c-.145.03-.196.159-.119.282l.332.528zm3.972-.808c.08.126.267.203.401.176l.823-.168a.418.418 0 0 0 .3-.318l.1-.616c.023-.147-.073-.243-.22-.213l-1.616.329c-.145.03-.197.159-.12.282l.332.528zm3.971-.808c.08.126.267.203.402.176l.822-.167a.418.418 0 0 0 .3-.32l.1-.615c.023-.147-.073-.243-.22-.213l-1.616.329c-.145.03-.196.159-.12.282l.332.528zm3.972-.808c.079.126.267.203.401.176l.822-.167a.418.418 0 0 0 .3-.32l.1-.615c.023-.147-.073-.243-.22-.213l-1.616.329c-.145.03-.196.159-.119.282l.332.528zm3.97-.808c.08.126.268.203.402.176l.822-.167a.418.418 0 0 0 .301-.32l.099-.615c.024-.147-.072-.243-.22-.213l-1.616.329c-.145.03-.196.159-.119.282l.332.528z"/>
      <path fill="#000" d="M232.96 228.388v.006l-1.605.327-.81-.524-1.438.293s-1.874.56-2.232-1.443c-.358-2.002 1.461-2.155 1.461-2.155.602-.123.809.225 1.445.096l2.366-.481-.001-.007 2.387-.485c.636-.13.69-.531 1.292-.654 0 0 1.735-.57 2.188 1.414.453 1.983-1.491 2.2-1.491 2.2l-1.437.292-.542.799-1.584.322zm3.544-2.457a.814.814 0 0 0 .631-.961.814.814 0 0 0-.957-.639.814.814 0 0 0-.632.962c.09.442.519.728.958.638zm-7.788 1.591a.814.814 0 0 0 .632-.962.814.814 0 0 0-.957-.638.814.814 0 0 0-.632.962c.09.442.519.727.957.638zM233.991 233.462v-.007l-1.606.327-.542.799-1.437.292s-1.944.217-1.491 2.2c.452 1.983 2.187 1.414 2.187 1.414.602-.123.656-.524 1.292-.654l2.366-.481.002.006 2.387-.486c.636-.129.843.22 1.445.097 0 0 1.82-.154 1.461-2.156-.358-2.002-2.232-1.442-2.232-1.442l-1.437.292-.81-.524-1.585.323zm4.223.876a.814.814 0 0 1 .957.639.814.814 0 0 1-.632.961.814.814 0 0 1-.957-.638.814.814 0 0 1 .632-.962zm-7.79 1.579a.814.814 0 0 1 .957.638.814.814 0 0 1-.631.962.814.814 0 0 1-.957-.639.814.814 0 0 1 .631-.961z"/>
      <g transform="rotate(-11.5 1202.714 -1015.956)">
        <path fill="#282828" d="M0 4.899V1.905h8.646V4.9c0 1.052-1.936 1.905-4.323 1.905C1.935 6.804 0 5.95 0 4.899z"/>
        <ellipse cx="4.323" cy="1.905" fill="#515151" rx="4.323" ry="1.905"/>
      </g>
      <path fill="#000" d="M282.65 216.612l-.434-2.133 2.383-.485 2.658 13.068-2.382.484-.543-2.666-5.56 1.13-1.682-8.267 5.56-1.13z"/>
      <path fill="#FF1611" d="M288.748 205.096l7.76 38.141-3.067.624-3.2-2.134-6.67-32.782 2.12-3.227 3.057-.622zm-2.115 3.34l-.872 1.33 2.906 14.281 1.097-.223-3.13-15.388zm3.392 16.669l-1.098.223 2.905 14.278 1.323.886-3.13-15.387z"/>
      <path fill="#2D2D2D" d="M284.254 203.713l4.765-.97.489 2.4-4.766.97zM293.639 243.741l2.646-.538.326 1.6-2.647.538zM291.862 209.942a2.44 2.44 0 0 1 2.872 1.915 2.44 2.44 0 0 1-1.895 2.885l-2.912.592-.977-4.8 2.912-.592z"/>
    </g>
    <path fill="#F1B614" stroke="#000" stroke-width="1.612" d="M354.998 211.571c-.148-.983-.34-2.11-.58-3.37-.739-3.874-1.78-8.193-3.174-12.847-3.983-13.298-9.993-26.597-18.436-39.006-11.49-16.889-26.606-30.775-45.83-40.632-27.461-14.08-54.815-18.826-81.583-16.249-18.817 1.812-34.625 6.706-50.096 13.768-56.01 25.567-81.129 42.432-101.64 65.652-7.853 8.89-13.253 26.643-16.025 48.973-2.161 17.42-2.367 36.386-.863 43.266 2.152 9.845 19.37 20.131 39.642 23.354 20.854 3.316 41.01-4.981 60.023-22.993 1.403-1.33 11.028-10.957 14.55-14.36 7.792-7.532 15.282-14.236 23.254-20.61 19.944-15.948 40.175-27.576 61.013-33.637 46.553-13.54 81.074-9.95 119.745 8.691z"/>
    <path fill="#000" d="M55.712 426.95c2.495 8.39 15.182 16.19 15.182 16.19-3.672-.028-9.342-.473-15.47-5.028-10.532-7.829-25.555-30.503-32.394-40.843-6.839-10.341-14.25-21.672-17.634-26.576C2.012 365.788 0 361.906 0 358.497c0-3.41 4.278-4.887 4.278-4.887 13.025 16.57 25.32 44.116 25.32 44.116s-9.72-25.084-24.686-45.306c-1.636-2.21-3.01-9.962 3.535-13.812 6.545-3.851 12.455 1.571 15.257 5.403 11.982 16.386 24.415 51.153 24.415 51.153s-10.28-34.168-23.475-51.214c0 0 1.24-2.382 3.72-1.74 2.706.7 4.707 2.064 6.897 5.881 9.86 17.188 20.722 63.485 20.722 63.485s-2.36 8.348-.27 15.374zm37.45-72.629c6.817 0 14.526 5.319 19.678 13.534 5.152 8.216 3.01 17.056 3.01 25.834 0 8.777-4.22 20.06-4.22 20.06s3.175 1.12 3.708 1.668c1.126 1.156-.019 1.479 1.166 1.977 1.185.498 3.982 1.541 16.4 5.098 12.417 3.557 12.222 4.042 34.684 11.31 22.462 7.266 39.815 13.21 37.14 14.143-23.53 8.202-43.994-3.803-43.994-3.803 15.464 11.2 35.41 7.283 35.41 7.283-27.633 19.016-53.546-6.537-53.546-6.537 12.877 13.7 26.61 14.378 26.61 14.378-31.972 4.692-49.503-14.647-49.503-14.647 7.204 9.722 20.51 13.441 20.51 13.441-10.183 3.238-22.79-2.363-28.585-6.074-8.728-5.591-11.955-9.526-11.955-9.526 9.913 12.09 21.222 14.9 21.222 14.9s-8.637 1.324-17.405-2.018c-8.768-3.342-16.281-9.528-16.281-9.528 2.397 3.031 7.302 6.124 7.302 6.124s-5.485.61-12.828-3.45C51.68 431.89 55.82 423.02 56.857 412.81c2.046-11.864 7.032-31.107 16.27-43.837 9.238-12.73 15.417-14.653 20.035-14.653zM55.52 171.605c2.692-5.405 1.491-9.655-4.486-7.862 2.671-1.737 9.533-.802 9.802 6.844.096 2.728-2.301 6.34-4.773 10.437-5.437 9.009-4.67 24.721-3.284 36.245 2.53 21.031 11.65 29.782 10.108 41.126-1.868 13.733-11.66 16.908-17.831 16.832-8.333-.103-15.807-9.801-15.807-9.801s-1.61 4.86.813 8.501c2.424 3.641 9.084 11.85 16.57 18.508 7.487 6.657 20.937 17.216 26.955 23.102 6.017 5.887 17.036 13.437 21.43 23.093 2.869 6.302 2.23 12.583 1.763 15.214 0 0-4.547-2.028-11.242 1.28-4.59 2.27-9.446 8.426-9.446 8.426-.475-3.349-1.631-9.556-4.188-15.312-4.27-9.608-14.414-15.085-36.54-45.415-22.16-30.378-27.105-42.43-26.104-57.213 1.955-28.862 17.442-42.181 33.51-58.658 4.067-4.17 10.213-10.253 12.75-15.347z"/>
    <path stroke="#000" stroke-width="1.612" d="M356 209.486s-48.47-41.63-88.821-42.47c-40.98-.856-91.449 34.766-117.38 56.72C123.87 245.687 103.383 271 76.921 271c-26.461 0-22.742-6.712-22.742-6.712"/>
    <g transform="translate(19 206)">
      <ellipse cx="16.043" cy="18.91" fill="#F1B614" rx="11.976" ry="16.15" transform="rotate(-16 16.043 18.91)"/>
      <mask id="d" fill="#fff">
        <use xlink:href="#c"/>
      </mask>
      <ellipse cx="16.043" cy="18.91"  fill="#FFF" stroke="#000" stroke-width="1.075" rx="8.321" ry="11.034"/>
      <ellipse cx="20.359" cy="19.679" fill="#000" mask="url(#d)" rx="6.254" ry="6.379"/>
    </g>
  </g>
</svg>
